<?xml version="1.0" encoding="UTF-8"?>
<svg id="Calque_2" data-name="Calque 2" xmlns="http://www.w3.org/2000/svg" viewBox="0 0 200 186.32">
  <defs>
    <style>
      .cls-1 {
        stroke-width: 5px;
      }

      .cls-1, .cls-2 {
        fill: none;
        stroke: #ffffff;
        stroke-linecap: round;
        stroke-linejoin: round;
      }

      .cls-2 {
        stroke-width: 8px;
      }
    </style>
  </defs>
  <path class="cls-1" d="M86.93,88.83h23.78c5.31,0,9.51-4.73,8.62-10.21-.7-4.3-4.73-7.27-9.09-7.27h-19.81"/>
  <path class="cls-1" d="M55.09,164.69l8.37-41.8h25.99l-4.54,22.67c-.86,4.27,1.27,8.81,5.35,10.34,5.19,1.95,10.66-1.24,11.7-6.45l5.32-26.57,1.25-6.22c1.17-5.83-3.29-11.26-9.23-11.26h-22.47l2.8-13.97,3.5-17.48,1.78-8.88c1.51-7.55-4.26-14.6-11.97-14.6h-40.44c-4.44,0-8.27,3.14-9.14,7.49l-2,9.99-4.26,21.27c-.85,4.27,1.27,8.81,5.35,10.34,5.2,1.95,10.66-1.24,11.7-6.45l5.04-25.17h17.45l-7.5,37.46-3.5,17.48-8.21,41.02c-.85,4.27,1.27,8.81,5.35,10.34,1.06.4,2.14.58,3.19.58"/>
  <path class="cls-1" d="M92.51,24.35c0,7.83-6.35,14.18-14.18,14.18s-14.18-6.35-14.18-14.18,6.35-14.18,14.18-14.18,14.18,6.35,14.18,14.18Z"/>
  <path class="cls-2" d="M56.86,174.83h7.95c62.28,0,112.76-50.49,112.76-112.76v-17.04h11.65l-23.27-34.86-23.27,34.86h11.64"/>
</svg>