<?xml version="1.0" encoding="UTF-8"?>
<svg id="Calque_2" data-name="Calque 2" xmlns="http://www.w3.org/2000/svg" viewBox="0 0 200 186.32">
  <defs>
    <style>
      .cls-1 {
        stroke-linejoin: bevel;
      }

      .cls-1, .cls-2 {
        stroke-width: 5px;
      }

      .cls-1, .cls-2, .cls-3 {
        fill: none;
        stroke: #ffffff;
        stroke-linecap: round;
      }

      .cls-2, .cls-3 {
        stroke-linejoin: round;
      }

      .cls-3 {
        stroke-width: 8px;
      }
    </style>
  </defs>
  <path class="cls-3" d="M26.45,92.61c2.22,21.83,14.28,40.75,31.67,52.25"/>
  <path class="cls-3" d="M172.4,92.61c-2.15,21.14-13.53,39.55-30.05,51.14"/>
  <path class="cls-3" d="M65.42,19.58c10.11-5.49,21.69-8.61,34.01-8.61s23.9,3.12,34.01,8.61"/>
  <path class="cls-2" d="M55.59,27.97c0,7.6-6.16,13.77-13.77,13.77s-13.77-6.16-13.77-13.77,6.16-13.77,13.77-13.77,13.77,6.16,13.77,13.77Z"/>
  <path class="cls-1" d="M72.38,87.67v-22.02c0-6.52-5.29-11.81-11.81-11.81H23.07c-6.53,0-11.81,5.29-11.81,11.81v22.02"/>
  <path class="cls-2" d="M171.95,27.97c0,7.6-6.16,13.77-13.77,13.77s-13.77-6.16-13.77-13.77,6.16-13.77,13.77-13.77,13.77,6.16,13.77,13.77Z"/>
  <path class="cls-1" d="M188.74,87.67v-22.02c0-6.52-5.29-11.81-11.81-11.81h-37.5c-6.53,0-11.81,5.29-11.81,11.81v22.02"/>
  <path class="cls-2" d="M114,111.33c0,7.6-6.16,13.77-13.77,13.77s-13.77-6.16-13.77-13.77,6.16-13.77,13.77-13.77,13.77,6.16,13.77,13.77Z"/>
  <path class="cls-1" d="M130.8,171.04v-22.02c0-6.52-5.29-11.81-11.81-11.81h-37.5c-6.52,0-11.81,5.29-11.81,11.81v22.02"/>
</svg>