<?xml version="1.0" encoding="UTF-8"?>
<svg xmlns="http://www.w3.org/2000/svg" viewBox="0 0 472.38 212.68">
  <defs>
    <style>
      .cls-1 {
        fill: #f9c828;
      }

      .cls-1, .cls-2, .cls-3, .cls-4, .cls-5, .cls-6, .cls-7, .cls-8 {
        mix-blend-mode: multiply;
      }

      .cls-1, .cls-2, .cls-3, .cls-4, .cls-5, .cls-6, .cls-7, .cls-9, .cls-10, .cls-11, .cls-12, .cls-13 {
        stroke-width: 0px;
      }

      .cls-2, .cls-12 {
        fill: #f2c34e;
      }

      .cls-3 {
        fill: #cc9bc6;
      }

      .cls-4 {
        fill: #24958d;
      }

      .cls-5, .cls-10 {
        fill: #3baecf;
      }

      .cls-6 {
        fill: #214d5a;
      }

      .cls-7, .cls-11 {
        fill: #e15d43;
      }

      .cls-14 {
        isolation: isolate;
      }

      .cls-9 {
        fill: #ffffff;
      }

      .cls-13 {
        fill: #FFFFFF;
      }
    </style>
  </defs>
  <g class="cls-14">
    <g id="Calque_2" data-name="Calque 2">
      <g>
        <g>
          <path class="cls-13" d="M73.69,44.14c0,3.73-.95,6.03-2.48,7.81-1.72,1.95-4.26,3.19-7.45,3.19s-5.74-1.24-7.45-3.19c-1.54-1.77-2.48-4.08-2.48-7.81v-16.39c0-3.73.95-6.03,2.48-7.81,1.72-1.95,4.26-3.19,7.45-3.19s5.74,1.24,7.45,3.19c1.54,1.77,2.48,4.08,2.48,7.81v16.39ZM58.78,43.73c0,2.43.36,4.2,1.42,5.32.95,1.01,2.19,1.48,3.55,1.48s2.6-.47,3.55-1.48c1.06-1.12,1.42-2.9,1.42-5.32v-15.56c0-2.43-.36-4.2-1.42-5.32-.95-1.01-2.19-1.48-3.55-1.48s-2.6.47-3.55,1.48c-1.06,1.12-1.42,2.9-1.42,5.32v15.56Z"/>
          <path class="cls-13" d="M89.67,55.14c-2.25,0-4.67-1.01-6.51-3.14-1.54-1.77-2.43-4.14-2.43-7.87v-16.39c0-3.73.95-6.09,2.48-7.87,1.72-2.01,4.14-3.14,6.8-3.14,1.01,0,2.01.18,3.02.47.53.18.89.3,1.36.3.77,0,1.3-.59,1.3-1.36,0-.71-.06-.77-.06-1.66v-7.1c0-.83.65-1.48,1.48-1.48h2.01c.83,0,1.48.65,1.48,1.48v45.67c0,.83-.24,1.24-.59,1.54s-.77.41-1.24.41c-.59,0-1.12-.3-1.6-.65l-.24-.18c-.47-.35-.77-.47-1.3-.47-.47,0-1.24.41-2.42.83-.83.24-2.07.59-3.55.59ZM95.64,28.17c0-2.43-.35-4.2-1.42-5.32-.95-1.01-2.19-1.48-3.55-1.48s-2.6.47-3.55,1.48c-1.07,1.12-1.42,2.9-1.42,5.32v15.56c0,2.43.36,4.2,1.42,5.32.95,1.01,2.19,1.48,3.55,1.48s2.6-.47,3.55-1.48c1.07-1.12,1.42-2.9,1.42-5.32v-15.56Z"/>
          <path class="cls-13" d="M114.1,37.4c-.77,0-1.3.53-1.3,1.3v5.03c0,2.43.36,4.2,1.42,5.32.95,1.01,2.19,1.48,3.55,1.48s2.6-.47,3.55-1.48c1.06-1.12,1.42-2.9,1.42-5.32v-.47c0-.83.65-1.48,1.48-1.48h2.01c.83,0,1.48.65,1.48,1.48v.89c0,3.73-.95,6.03-2.48,7.81-1.72,1.95-4.26,3.19-7.45,3.19s-5.74-1.24-7.45-3.19c-1.54-1.77-2.48-4.08-2.48-7.81v-16.39c0-3.73.95-6.03,2.48-7.81,1.72-1.95,4.26-3.19,7.45-3.19s5.74,1.24,7.45,3.19c1.54,1.77,2.48,4.08,2.48,7.81v8.1c0,.83-.71,1.54-1.54,1.54h-12.07ZM112.8,31.6c0,.89.41,1.3,1.3,1.3h7.28c.77,0,1.36-.59,1.36-1.36v-3.37c0-2.43-.36-4.2-1.42-5.32-.95-1.01-2.19-1.48-3.55-1.48s-2.6.47-3.55,1.48c-1.06,1.12-1.42,2.9-1.42,5.32v3.43Z"/>
          <path class="cls-13" d="M139.84,53.25c0,.83-.65,1.48-1.48,1.48h-2.01c-.83,0-1.48-.65-1.48-1.48V18.94c0-.83.24-1.24.59-1.54.36-.3.77-.41,1.24-.41.59,0,1.12.3,1.6.65l.24.18c.47.35.77.47,1.3.47.47,0,1.24-.35,2.42-.77,1.07-.35,2.31-.59,3.55-.59h1.07c.89,0,1.54.53,1.54,1.48v1.95c0,.83-.65,1.48-1.48,1.48h-1.72c-2.01,0-3.25.41-4.14,1.36-.95,1.06-1.24,2.78-1.24,5.09v24.96Z"/>
          <path class="cls-13" d="M168.41,28.17c0-2.43-.36-4.2-1.42-5.32-.95-1.01-2.19-1.48-3.55-1.48s-2.6.47-3.55,1.48c-1.06,1.12-1.42,2.9-1.42,5.32v25.08c0,.83-.65,1.48-1.48,1.48h-2.01c-.83,0-1.48-.65-1.48-1.48V18.94c0-.83.24-1.24.59-1.54.36-.3.77-.41,1.24-.41.59,0,1.12.3,1.6.65l.24.18c.47.35.77.47,1.3.47.47,0,1.24-.47,2.42-.89.95-.3,2.25-.65,3.67-.65,2.13,0,4.5.89,6.21,2.72,1.54,1.66,2.6,4.14,2.6,8.22v25.56c0,.83-.65,1.48-1.48,1.48h-2.01c-.83,0-1.48-.65-1.48-1.48v-25.08Z"/>
          <path class="cls-13" d="M180.9,7.4c0-.83.65-1.48,1.48-1.48h2.37c.83,0,1.48.65,1.48,1.48v2.37c0,.83-.65,1.48-1.48,1.48h-2.37c-.83,0-1.48-.65-1.48-1.48v-2.37ZM181.07,18.64c0-.83.65-1.48,1.48-1.48h2.01c.83,0,1.48.65,1.48,1.48v34.61c0,.83-.65,1.48-1.48,1.48h-2.01c-.83,0-1.48-.65-1.48-1.48V18.64Z"/>
          <path class="cls-13" d="M199.94,22.73c-.89.89-1.24,2.25-1.24,4.26v.12c0,1.07.3,2.43.77,3.19.47.77,1.12,1.3,2.72,2.01l4.14,1.83c3.31,1.48,4.5,2.54,5.5,3.9,1.01,1.42,1.54,3.08,1.54,5.5v1.54c0,6.33-4.32,10.06-9.88,10.06-3.19,0-5.62-1.24-7.34-3.19-1.54-1.77-2.48-4.08-2.48-7.81v-.89c0-.83.65-1.48,1.48-1.48h2.01c.83,0,1.48.65,1.48,1.48v.06c0,2.43.35,4.61,1.36,5.74.95,1.01,2.13,1.48,3.49,1.48s2.66-.41,3.61-1.36c.89-.89,1.36-2.25,1.36-4.26v-.24c0-1.48-.29-2.9-.83-3.67-.47-.71-1.3-1.54-2.9-2.25l-4.14-1.83c-3.31-1.48-4.32-2.48-5.32-3.85-1.01-1.42-1.48-3.31-1.48-5.74v-.53c0-6.33,4.08-10.06,9.64-10.06,3.19,0,5.74,1.24,7.45,3.19,1.48,1.72,2.48,3.9,2.48,7.28v.41c0,.83-.65,1.48-1.48,1.48h-2.01c-.83,0-1.48-.65-1.48-1.48,0-2.07-.47-3.79-1.42-4.79-.95-1.01-2.19-1.48-3.55-1.48s-2.54.41-3.49,1.36Z"/>
          <path class="cls-13" d="M240.06,52.95c0,.83-.24,1.24-.59,1.54-.36.3-.77.41-1.24.41-.59,0-1.12-.24-1.6-.59l-.24-.18c-.47-.35-.77-.47-1.3-.47-.47,0-1.24.47-2.31.83-1.01.35-2.01.65-3.43.65-5.86,0-9.35-5.03-9.35-10.94v-.95c0-3.43,1.42-6.69,4.02-8.58,1.48-1.12,3.84-1.77,6.39-1.77h3.37c.77,0,1.3-.59,1.3-1.36v-3.37c0-2.43-.36-4.2-1.42-5.32-.95-1.01-2.19-1.48-3.55-1.48s-2.6.47-3.55,1.48c-.95,1.01-1.42,2.66-1.42,4.73v.06c0,.83-.65,1.48-1.48,1.48h-2.01c-.83,0-1.48-.65-1.48-1.48v-.41c0-3.37,1.01-5.56,2.48-7.28,1.72-1.95,4.26-3.19,7.45-3.19s5.74,1.24,7.45,3.19c1.54,1.77,2.48,4.08,2.48,7.81v25.2ZM225.15,44.73c0,1.66.41,2.96,1.18,4.02.77,1.06,1.95,1.77,3.79,1.77,2.37,0,4.97-1.48,4.97-4.91v-6.86c0-.77-.53-1.36-1.3-1.36h-3.79c-1.89,0-3.08.77-3.85,1.83-.71,1.01-1.01,2.19-1.01,3.85v1.66Z"/>
          <path class="cls-13" d="M245.74,21.84c-.83,0-1.48-.65-1.48-1.48v-1.72c0-.83.65-1.48,1.48-1.48h2.19c.77,0,1.3-.65,1.3-1.42v-4.14c0-.83.65-1.48,1.48-1.48h2.01c.83,0,1.48.65,1.48,1.48v4.14c0,.77.53,1.42,1.3,1.42h4.08c.83,0,1.48.65,1.48,1.48v1.72c0,.83-.65,1.48-1.48,1.48h-4.08c-.77,0-1.3.59-1.3,1.36v23.84c0,1.12.3,1.89.77,2.31.35.35,1.07.71,1.89.71h2.72c.83,0,1.48.65,1.48,1.48v1.72c0,.83-.65,1.48-1.48,1.48h-2.01c-3.19,0-5.27-.65-6.62-2.13-1.12-1.24-1.72-2.96-1.72-5.8v-23.6c0-.77-.53-1.36-1.3-1.36h-2.19Z"/>
          <path class="cls-13" d="M266.5,7.4c0-.83.65-1.48,1.48-1.48h2.37c.83,0,1.48.65,1.48,1.48v2.37c0,.83-.65,1.48-1.48,1.48h-2.37c-.83,0-1.48-.65-1.48-1.48v-2.37ZM266.68,18.64c0-.83.65-1.48,1.48-1.48h2.01c.83,0,1.48.65,1.48,1.48v34.61c0,.83-.65,1.48-1.48,1.48h-2.01c-.83,0-1.48-.65-1.48-1.48V18.64Z"/>
          <path class="cls-13" d="M299.28,44.14c0,3.73-.95,6.03-2.48,7.81-1.72,1.95-4.26,3.19-7.45,3.19s-5.74-1.24-7.45-3.19c-1.54-1.77-2.48-4.08-2.48-7.81v-16.39c0-3.73.95-6.03,2.48-7.81,1.72-1.95,4.26-3.19,7.45-3.19s5.74,1.24,7.45,3.19c1.54,1.77,2.48,4.08,2.48,7.81v16.39ZM284.37,43.73c0,2.43.36,4.2,1.42,5.32.95,1.01,2.19,1.48,3.55,1.48s2.6-.47,3.55-1.48c1.06-1.12,1.42-2.9,1.42-5.32v-15.56c0-2.43-.36-4.2-1.42-5.32-.95-1.01-2.19-1.48-3.55-1.48s-2.6.47-3.55,1.48c-1.06,1.12-1.42,2.9-1.42,5.32v15.56Z"/>
          <path class="cls-13" d="M321.41,28.17c0-2.43-.36-4.2-1.42-5.32-.95-1.01-2.19-1.48-3.55-1.48s-2.6.47-3.55,1.48c-1.06,1.12-1.42,2.9-1.42,5.32v25.08c0,.83-.65,1.48-1.48,1.48h-2.01c-.83,0-1.48-.65-1.48-1.48V18.94c0-.83.24-1.24.59-1.54.36-.3.77-.41,1.24-.41.59,0,1.12.3,1.6.65l.24.18c.47.35.77.47,1.3.47.47,0,1.24-.47,2.42-.89.95-.3,2.25-.65,3.67-.65,2.13,0,4.5.89,6.21,2.72,1.54,1.66,2.6,4.14,2.6,8.22v25.56c0,.83-.65,1.48-1.48,1.48h-2.01c-.83,0-1.48-.65-1.48-1.48v-25.08Z"/>
        </g>
        <g>
          <path class="cls-13" d="M11.76,90.35c-1.25,0-2.6-.56-3.62-1.74-.86-.99-1.35-2.3-1.35-4.37v-9.11c0-2.07.53-3.39,1.38-4.37.95-1.12,2.3-1.74,3.78-1.74.56,0,1.12.1,1.68.26.3.1.49.16.76.16.43,0,.72-.33.72-.76,0-.39-.03-.43-.03-.92v-3.95c0-.46.36-.82.82-.82h1.12c.46,0,.82.36.82.82v25.39c0,.46-.13.69-.33.86s-.43.23-.69.23c-.33,0-.62-.16-.89-.36l-.13-.1c-.26-.2-.43-.26-.72-.26-.26,0-.69.23-1.35.46-.46.13-1.15.33-1.97.33ZM15.08,75.35c0-1.35-.2-2.34-.79-2.96-.53-.56-1.22-.82-1.97-.82s-1.45.26-1.97.82c-.59.62-.79,1.61-.79,2.96v8.65c0,1.35.2,2.34.79,2.96.53.56,1.22.82,1.97.82s1.45-.26,1.97-.82c.59-.62.79-1.61.79-2.96v-8.65Z"/>
          <path class="cls-13" d="M25.34,80.48c-.43,0-.72.3-.72.72v2.8c0,1.35.2,2.34.79,2.96.53.56,1.22.82,1.97.82s1.45-.26,1.97-.82c.59-.62.79-1.61.79-2.96v-.26c0-.46.36-.82.82-.82h1.12c.46,0,.82.36.82.82v.49c0,2.07-.53,3.35-1.38,4.34-.95,1.09-2.37,1.78-4.14,1.78s-3.19-.69-4.14-1.78c-.86-.99-1.38-2.27-1.38-4.34v-9.11c0-2.07.53-3.35,1.38-4.34.95-1.09,2.37-1.78,4.14-1.78s3.19.69,4.14,1.78c.86.99,1.38,2.27,1.38,4.34v4.51c0,.46-.39.86-.86.86h-6.71ZM24.62,77.26c0,.49.23.72.72.72h4.05c.43,0,.76-.33.76-.76v-1.87c0-1.35-.2-2.34-.79-2.96-.53-.56-1.22-.82-1.97-.82s-1.45.26-1.97.82c-.59.62-.79,1.61-.79,2.96v1.91Z"/>
          <path class="cls-13" d="M45.42,89.29c0,.46-.36.82-.82.82h-1.12c-.46,0-.82-.36-.82-.82v-25.49c0-.46.36-.82.82-.82h1.12c.46,0,.82.36.82.82v25.49Z"/>
          <path class="cls-13" d="M60.61,89.13c0,.46-.13.69-.33.86-.2.16-.43.23-.69.23-.33,0-.62-.13-.89-.33l-.13-.1c-.26-.2-.43-.26-.72-.26-.26,0-.69.26-1.28.46-.56.2-1.12.36-1.91.36-3.26,0-5.2-2.8-5.2-6.09v-.53c0-1.91.79-3.72,2.24-4.77.82-.62,2.14-.99,3.55-.99h1.88c.43,0,.72-.33.72-.76v-1.87c0-1.35-.2-2.34-.79-2.96-.53-.56-1.22-.82-1.97-.82s-1.45.26-1.97.82c-.53.56-.79,1.48-.79,2.63v.03c0,.46-.36.82-.82.82h-1.12c-.46,0-.82-.36-.82-.82v-.23c0-1.88.56-3.09,1.38-4.05.95-1.09,2.37-1.78,4.14-1.78s3.19.69,4.14,1.78c.85.99,1.38,2.27,1.38,4.34v14.01ZM52.32,84.56c0,.92.23,1.64.66,2.24s1.09.99,2.11.99c1.32,0,2.76-.82,2.76-2.73v-3.82c0-.43-.3-.76-.72-.76h-2.11c-1.05,0-1.71.43-2.14,1.02-.39.56-.56,1.22-.56,2.14v.92Z"/>
        </g>
        <g>
          <path class="cls-9" d="M6.84,100.08c0-.83.71-1.48,1.54-1.48h12.42c.83,0,1.48.65,1.48,1.48v1.89c0,.83-.65,1.3-1.48,1.48h-7.57c-.77,0-1.3.59-1.3,1.36v15.85c0,.77.53,1.36,1.3,1.36h7.57c.83,0,1.48.65,1.48,1.48v1.89c0,.83-.65,1.48-1.48,1.48h-7.57c-.77,0-1.3.59-1.3,1.36v17.69c0,.83-.65,1.48-1.48,1.48h-2.07c-.83,0-1.54-.65-1.54-1.48v-45.85Z"/>
          <path class="cls-9" d="M30.51,144.62c-1.54-1.77-2.54-4.08-2.54-7.81v-27.63c0-3.73,1.01-6.03,2.54-7.81,1.77-1.95,4.38-3.19,7.63-3.19s5.86,1.24,7.63,3.19c1.54,1.77,2.54,4.08,2.54,7.81v27.63c0,3.73-1.01,6.03-2.54,7.81-1.77,1.95-4.38,3.19-7.63,3.19s-5.86-1.24-7.63-3.19ZM41.75,141.72c1.12-1.12,1.48-2.9,1.48-5.32v-26.8c0-2.43-.36-4.2-1.48-5.32-.95-1.01-2.19-1.48-3.61-1.48s-2.66.47-3.61,1.48c-1.12,1.12-1.48,2.9-1.48,5.32v26.8c0,2.43.35,4.2,1.48,5.32.95,1.01,2.19,1.48,3.61,1.48s2.66-.47,3.61-1.48Z"/>
          <path class="cls-9" d="M75.88,145.92c0,.83-.65,1.48-1.48,1.48h-2.07c-.83,0-1.54-.65-1.54-1.48v-12.78c0-2.43-.36-4.2-1.42-5.32-.95-1.01-2.25-1.54-3.67-1.54h-3.55c-.77,0-1.3.59-1.3,1.36v18.28c0,.83-.65,1.48-1.48,1.48h-2.07c-.83,0-1.54-.65-1.54-1.48v-45.85c0-.83.71-1.48,1.54-1.48h8.52c3.25,0,5.8,1.24,7.51,3.19,1.6,1.77,2.54,4.08,2.54,7.81v5.21c0,2.72-.3,5.68-2.42,7.75l-.47.47c-.36.35-.47.65-.47.95s.12.59.47.95l.47.47c2.13,2.07,2.42,5.03,2.42,7.75v12.78ZM65.71,121.55c1.36,0,2.72-.47,3.67-1.48,1.06-1.12,1.42-2.9,1.42-5.32v-4.55c0-2.43-.3-4.2-1.36-5.32-.95-1.01-2.25-1.48-3.61-1.48h-3.43c-1.01,0-1.54.41-1.54,1.3v15.56c0,.89.47,1.3,1.36,1.3h3.49Z"/>
          <path class="cls-9" d="M103.16,145.92c0,.83-.65,1.48-1.48,1.48h-2.07c-.83,0-1.54-.65-1.54-1.48v-36.68c0-2.31-.42-3.96-1.42-5.03-.89-1.01-2.13-1.42-3.43-1.42s-2.48.41-3.43,1.42c-1.07,1.06-1.36,2.72-1.36,5.03v36.68c0,.83-.65,1.48-1.48,1.48h-2.07c-.83,0-1.54-.65-1.54-1.48v-45.55c0-.83.24-1.24.65-1.54.36-.3.77-.41,1.24-.41.59,0,1.12.24,1.66.59l.24.18c.47.35.77.47,1.3.47.47,0,1.18-.47,2.42-.89.95-.3,2.13-.59,3.31-.59,1.77,0,3.73.53,5.8,2.37.18.24.47.35.83.35.3,0,.59-.12.95-.35,2.07-1.83,4.32-2.37,6.86-2.37,2.13,0,4.85.95,6.51,2.78,1.54,1.66,2.78,4.02,2.78,8.1v36.85c0,.83-.65,1.48-1.48,1.48h-2.07c-.83,0-1.54-.65-1.54-1.48v-36.68c0-2.31-.41-3.96-1.42-5.03-.89-1.01-2.13-1.42-3.43-1.42s-2.48.41-3.43,1.42c-1.06,1.06-1.36,2.72-1.36,5.03v36.68Z"/>
          <path class="cls-9" d="M131.62,126.88c-.71,0-1.3.59-1.3,1.3v17.75c0,.83-.65,1.48-1.48,1.48h-2.07c-.83,0-1.54-.65-1.54-1.48v-36.74c0-3.73,1.01-6.03,2.54-7.81,1.77-1.95,4.38-3.19,7.63-3.19s5.86,1.24,7.63,3.19c1.54,1.77,2.54,4.08,2.54,7.81v36.74c0,.83-.71,1.48-1.54,1.48h-2.07c-.83,0-1.48-.65-1.48-1.48v-17.75c0-.71-.59-1.3-1.3-1.3h-7.57ZM139.19,122.14c.71,0,1.3-.59,1.3-1.3v-11.24c0-2.43-.36-4.2-1.48-5.32-.95-1.01-2.19-1.48-3.61-1.48s-2.66.47-3.61,1.48c-1.12,1.12-1.48,2.9-1.48,5.32v11.24c0,.71.59,1.3,1.3,1.3h7.57Z"/>
          <path class="cls-9" d="M169.89,98.6c.83,0,1.48.65,1.48,1.48v1.89c0,.83-.65,1.48-1.48,1.48h-5.21c-.77,0-1.3.65-1.3,1.42v41.05c0,.83-.65,1.48-1.54,1.48h-2.01c-.89,0-1.54-.65-1.54-1.48v-41.05c0-.77-.53-1.42-1.3-1.42h-5.15c-.83,0-1.54-.65-1.54-1.48v-1.89c0-.83.71-1.48,1.54-1.48h18.04Z"/>
          <path class="cls-9" d="M182.32,145.92c0,.83-.65,1.48-1.48,1.48h-2.07c-.83,0-1.54-.65-1.54-1.48v-45.85c0-.83.71-1.48,1.54-1.48h2.07c.83,0,1.48.65,1.48,1.48v45.85Z"/>
          <path class="cls-9" d="M192.73,144.62c-1.54-1.77-2.54-4.08-2.54-7.81v-27.63c0-3.73,1.01-6.03,2.54-7.81,1.77-1.95,4.38-3.19,7.63-3.19s5.86,1.24,7.63,3.19c1.54,1.77,2.54,4.08,2.54,7.81v27.63c0,3.73-1.01,6.03-2.54,7.81-1.77,1.95-4.38,3.19-7.63,3.19s-5.86-1.24-7.63-3.19ZM203.97,141.72c1.12-1.12,1.48-2.9,1.48-5.32v-26.8c0-2.43-.36-4.2-1.48-5.32-.95-1.01-2.19-1.48-3.61-1.48s-2.66.47-3.61,1.48c-1.12,1.12-1.48,2.9-1.48,5.32v26.8c0,2.43.35,4.2,1.48,5.32.95,1.01,2.19,1.48,3.61,1.48s2.66-.47,3.61-1.48Z"/>
          <path class="cls-9" d="M233.14,109.6c0-2.43-.41-4.2-1.48-5.32-.95-1.01-2.25-1.48-3.61-1.48s-2.66.47-3.61,1.48c-1.12,1.12-1.48,2.9-1.48,5.32v36.32c0,.83-.65,1.48-1.48,1.48h-2.07c-.83,0-1.54-.65-1.54-1.48v-45.55c0-.83.24-1.24.65-1.54.36-.3.77-.41,1.24-.41.59,0,1.12.24,1.66.59l.24.18c.47.35.77.47,1.3.47.47,0,1.24-.41,2.48-.83.95-.3,2.31-.65,3.73-.65,2.19,0,4.67.89,6.39,2.72,1.6,1.66,2.66,4.14,2.66,8.22v36.79c0,.83-.65,1.48-1.48,1.48h-2.07c-.83,0-1.54-.65-1.54-1.48v-36.32Z"/>
        </g>
        <g>
          <path class="cls-9" d="M8.38,204.31c-.83,0-1.54-.65-1.54-1.48v-45.85c0-.83.71-1.48,1.54-1.48h8.64c3.25,0,5.92,1.24,7.63,3.19,1.6,1.77,2.54,4.08,2.54,7.81v6.92c0,3.73-1.01,6.03-2.6,7.81-1.72,1.95-4.32,3.19-7.57,3.19h-3.79c-.77,0-1.3.59-1.3,1.36v17.04c0,.83-.65,1.48-1.48,1.48h-2.07ZM22.1,167.1c0-2.43-.3-4.2-1.36-5.32-.95-1.01-2.37-1.48-3.73-1.48h-3.61c-1.01,0-1.48.41-1.48,1.3v16.74c0,.89.41,1.3,1.3,1.3h3.85c1.36,0,2.66-.65,3.61-1.66,1.06-1.12,1.42-2.9,1.42-5.32v-5.56Z"/>
          <path class="cls-9" d="M54.58,202.83c0,.83-.65,1.48-1.48,1.48h-2.07c-.83,0-1.54-.65-1.54-1.48v-12.78c0-2.43-.36-4.2-1.42-5.32-.95-1.01-2.25-1.54-3.67-1.54h-3.55c-.77,0-1.3.59-1.3,1.36v18.28c0,.83-.65,1.48-1.48,1.48h-2.07c-.83,0-1.54-.65-1.54-1.48v-45.85c0-.83.71-1.48,1.54-1.48h8.52c3.25,0,5.8,1.24,7.51,3.19,1.6,1.77,2.54,4.08,2.54,7.81v5.21c0,2.72-.3,5.68-2.42,7.75l-.47.47c-.36.35-.47.65-.47.95s.12.59.47.95l.47.47c2.13,2.07,2.42,5.03,2.42,7.75v12.78ZM44.41,178.46c1.36,0,2.72-.47,3.67-1.48,1.06-1.12,1.42-2.9,1.42-5.32v-4.56c0-2.43-.3-4.2-1.36-5.32-.95-1.01-2.25-1.48-3.61-1.48h-3.43c-1.01,0-1.54.41-1.54,1.3v15.56c0,.89.47,1.3,1.36,1.3h3.49Z"/>
          <path class="cls-9" d="M66.3,201.53c-1.54-1.77-2.54-4.08-2.54-7.81v-27.63c0-3.73,1.01-6.03,2.54-7.81,1.77-1.95,4.38-3.19,7.63-3.19s5.86,1.24,7.63,3.19c1.54,1.77,2.54,4.08,2.54,7.81v27.63c0,3.73-1.01,6.03-2.54,7.81-1.77,1.95-4.38,3.19-7.63,3.19s-5.86-1.24-7.63-3.19ZM77.54,198.63c1.12-1.12,1.48-2.9,1.48-5.32v-26.8c0-2.42-.36-4.2-1.48-5.32-.95-1.01-2.19-1.48-3.61-1.48s-2.66.47-3.61,1.48c-1.12,1.12-1.48,2.9-1.48,5.32v26.8c0,2.43.35,4.2,1.48,5.32.95,1.01,2.19,1.48,3.61,1.48s2.66-.47,3.61-1.48Z"/>
          <path class="cls-9" d="M93.16,156.99c0-.83.71-1.48,1.54-1.48h12.42c.83,0,1.48.65,1.48,1.48v1.89c0,.83-.65,1.3-1.48,1.48h-7.57c-.77,0-1.3.59-1.3,1.36v15.85c0,.77.53,1.36,1.3,1.36h7.57c.83,0,1.48.65,1.48,1.48v1.89c0,.83-.65,1.48-1.48,1.48h-7.57c-.77,0-1.3.59-1.3,1.36v17.69c0,.83-.65,1.48-1.48,1.48h-2.07c-.83,0-1.54-.65-1.54-1.48v-45.85Z"/>
          <path class="cls-9" d="M117.53,204.31c-.83,0-1.54-.65-1.54-1.48v-45.85c0-.83.71-1.48,1.54-1.48h12.42c.83,0,1.48.65,1.48,1.48v1.89c0,.83-.65,1.3-1.48,1.48h-7.57c-.77,0-1.3.59-1.3,1.36v14.14c0,.77.53,1.36,1.3,1.36h7.57c.83,0,1.48.65,1.48,1.48v1.89c0,.83-.65,1.48-1.48,1.48h-7.57c-.77,0-1.3.59-1.3,1.36v14.67c0,.77.53,1.36,1.3,1.36h7.57c.83,0,1.48.65,1.48,1.48v1.89c0,.83-.65,1.48-1.48,1.48h-12.42Z"/>
          <path class="cls-9" d="M153.8,166.33c0-2.37-.41-4.08-1.42-5.21-1.01-.95-2.25-1.42-3.55-1.42s-2.6.47-3.61,1.42c-1.01,1.12-1.36,2.84-1.36,5.21v4.38c0,2.07.24,3.25.89,4.14.53.83,1.36,1.48,3.19,2.37l4.67,2.13c2.01.89,3.55,1.95,4.67,3.55,1.18,1.66,1.72,3.55,1.72,6.86v4.14c0,4.02-1.3,6.8-3.49,8.58-1.77,1.42-4.02,2.25-6.62,2.25-3.25,0-5.86-1.24-7.63-3.19-1.54-1.77-2.54-4.08-2.54-7.81v-3.61c0-.83.71-1.48,1.54-1.48h2.07c.83,0,1.48.65,1.48,1.48v3.19c0,2.43.35,4.2,1.36,5.32,1.01,1.01,2.19,1.48,3.85,1.48,1.3,0,2.6-.47,3.55-1.42,1.01-1.12,1.36-2.84,1.36-5.21v-3.37c0-2.07-.24-3.25-.89-4.2-.53-.77-1.36-1.48-3.25-2.37l-4.67-2.07c-1.95-.89-3.49-2.13-4.61-3.73-1.12-1.66-1.72-3.49-1.72-6.8v-5.03c0-4.02,1.36-6.8,3.49-8.58,1.77-1.42,4.08-2.25,6.68-2.25,3.19,0,5.8,1.24,7.45,3.14,1.6,1.77,2.48,4.08,2.48,7.75v3.25c0,.83-.65,1.48-1.54,1.48h-2.01c-.89,0-1.54-.65-1.54-1.48v-2.9Z"/>
          <path class="cls-9" d="M181.19,166.33c0-2.37-.41-4.08-1.42-5.21-1.01-.95-2.25-1.42-3.55-1.42s-2.6.47-3.61,1.42c-1.01,1.12-1.36,2.84-1.36,5.21v4.38c0,2.07.24,3.25.89,4.14.53.83,1.36,1.48,3.19,2.37l4.67,2.13c2.01.89,3.55,1.95,4.67,3.55,1.18,1.66,1.72,3.55,1.72,6.86v4.14c0,4.02-1.3,6.8-3.49,8.58-1.77,1.42-4.02,2.25-6.62,2.25-3.25,0-5.86-1.24-7.63-3.19-1.54-1.77-2.54-4.08-2.54-7.81v-3.61c0-.83.71-1.48,1.54-1.48h2.07c.83,0,1.48.65,1.48,1.48v3.19c0,2.43.35,4.2,1.36,5.32,1.01,1.01,2.19,1.48,3.85,1.48,1.3,0,2.6-.47,3.55-1.42,1.01-1.12,1.36-2.84,1.36-5.21v-3.37c0-2.07-.24-3.25-.89-4.2-.53-.77-1.36-1.48-3.25-2.37l-4.67-2.07c-1.95-.89-3.49-2.13-4.61-3.73-1.12-1.66-1.72-3.49-1.72-6.8v-5.03c0-4.02,1.36-6.8,3.49-8.58,1.77-1.42,4.08-2.25,6.68-2.25,3.19,0,5.8,1.24,7.45,3.14,1.6,1.77,2.48,4.08,2.48,7.75v3.25c0,.83-.65,1.48-1.54,1.48h-2.01c-.89,0-1.54-.65-1.54-1.48v-2.9Z"/>
          <path class="cls-9" d="M200.95,202.83c0,.83-.65,1.48-1.48,1.48h-2.07c-.83,0-1.54-.65-1.54-1.48v-45.85c0-.83.71-1.48,1.54-1.48h2.07c.83,0,1.48.65,1.48,1.48v45.85Z"/>
          <path class="cls-9" d="M213.08,201.53c-1.54-1.77-2.54-4.08-2.54-7.81v-27.63c0-3.73,1.01-6.03,2.54-7.81,1.77-1.95,4.38-3.19,7.63-3.19s5.86,1.24,7.63,3.19c1.54,1.77,2.54,4.08,2.54,7.81v27.63c0,3.73-1.01,6.03-2.54,7.81-1.77,1.95-4.38,3.19-7.63,3.19s-5.86-1.24-7.63-3.19ZM224.32,198.63c1.12-1.12,1.48-2.9,1.48-5.32v-26.8c0-2.42-.36-4.2-1.48-5.32-.95-1.01-2.19-1.48-3.61-1.48s-2.66.47-3.61,1.48c-1.12,1.12-1.48,2.9-1.48,5.32v26.8c0,2.43.35,4.2,1.48,5.32.95,1.01,2.19,1.48,3.61,1.48s2.66-.47,3.61-1.48Z"/>
          <path class="cls-9" d="M255.2,166.51c0-2.42-.41-4.2-1.48-5.32-.95-1.01-2.25-1.48-3.61-1.48s-2.66.47-3.61,1.48c-1.12,1.12-1.48,2.9-1.48,5.32v36.32c0,.83-.65,1.48-1.48,1.48h-2.07c-.83,0-1.54-.65-1.54-1.48v-45.55c0-.83.24-1.24.65-1.54.36-.3.77-.41,1.24-.41.59,0,1.12.24,1.66.59l.24.18c.47.35.77.47,1.3.47.47,0,1.24-.41,2.48-.83.95-.3,2.31-.65,3.73-.65,2.19,0,4.67.89,6.39,2.72,1.6,1.66,2.66,4.14,2.66,8.22v36.79c0,.83-.65,1.48-1.48,1.48h-2.07c-.83,0-1.54-.65-1.54-1.48v-36.32Z"/>
          <path class="cls-9" d="M284.6,166.51c0-2.42-.41-4.2-1.48-5.32-.95-1.01-2.25-1.48-3.61-1.48s-2.66.47-3.61,1.48c-1.12,1.12-1.48,2.9-1.48,5.32v36.32c0,.83-.65,1.48-1.48,1.48h-2.07c-.83,0-1.54-.65-1.54-1.48v-45.55c0-.83.24-1.24.65-1.54.36-.3.77-.41,1.24-.41.59,0,1.12.24,1.66.59l.24.18c.47.35.77.47,1.3.47.47,0,1.24-.41,2.48-.83.95-.3,2.31-.65,3.73-.65,2.19,0,4.67.89,6.39,2.72,1.6,1.66,2.66,4.14,2.66,8.22v36.79c0,.83-.65,1.48-1.48,1.48h-2.07c-.83,0-1.54-.65-1.54-1.48v-36.32Z"/>
          <path class="cls-9" d="M300.28,204.31c-.83,0-1.54-.65-1.54-1.48v-45.85c0-.83.71-1.48,1.54-1.48h12.42c.83,0,1.48.65,1.48,1.48v1.89c0,.83-.65,1.3-1.48,1.48h-7.57c-.77,0-1.3.59-1.3,1.36v14.14c0,.77.53,1.36,1.3,1.36h7.57c.83,0,1.48.65,1.48,1.48v1.89c0,.83-.65,1.48-1.48,1.48h-7.57c-.77,0-1.3.59-1.3,1.36v14.67c0,.77.53,1.36,1.3,1.36h7.57c.83,0,1.48.65,1.48,1.48v1.89c0,.83-.65,1.48-1.48,1.48h-12.42Z"/>
          <path class="cls-9" d="M327.26,198.1c0,.77.53,1.36,1.3,1.36h7.1c.83,0,1.48.65,1.48,1.48v1.89c0,.83-.65,1.48-1.48,1.48h-11.95c-.83,0-1.54-.65-1.54-1.48v-45.85c0-.83.71-1.48,1.54-1.48h2.07c.83,0,1.48.65,1.48,1.48v41.11Z"/>
          <path class="cls-9" d="M348.14,198.1c0,.77.53,1.36,1.3,1.36h7.1c.83,0,1.48.65,1.48,1.48v1.89c0,.83-.65,1.48-1.48,1.48h-11.95c-.83,0-1.54-.65-1.54-1.48v-45.85c0-.83.71-1.48,1.54-1.48h2.07c.83,0,1.48.65,1.48,1.48v41.11Z"/>
          <path class="cls-9" d="M365.48,204.31c-.83,0-1.54-.65-1.54-1.48v-45.85c0-.83.71-1.48,1.54-1.48h12.42c.83,0,1.48.65,1.48,1.48v1.89c0,.83-.65,1.3-1.48,1.48h-7.57c-.77,0-1.3.59-1.3,1.36v14.14c0,.77.53,1.36,1.3,1.36h7.57c.83,0,1.48.65,1.48,1.48v1.89c0,.83-.65,1.48-1.48,1.48h-7.57c-.77,0-1.3.59-1.3,1.36v14.67c0,.77.53,1.36,1.3,1.36h7.57c.83,0,1.48.65,1.48,1.48v1.89c0,.83-.65,1.48-1.48,1.48h-12.42Z"/>
        </g>
      </g>
      <g>
        <path class="cls-5" d="M249.01,146.11h34.29c.25,1.7,1.71,3,3.48,3s3.23-1.3,3.48-3h34.75c.25,1.7,1.71,3,3.48,3,1.95,0,3.52-1.58,3.52-3.52s-1.58-3.52-3.52-3.52c-1.77,0-3.23,1.3-3.48,3h-34.75c-.25-1.7-1.71-3-3.48-3s-3.23,1.3-3.48,3h-34.29"/>
        <path class="cls-6" d="M389.87,120.47c-1.77,0-3.23,1.3-3.48,3h-35.24c-.25-1.7-1.71-3-3.48-3-1.95,0-3.52,1.58-3.52,3.52s1.58,3.52,3.52,3.52c1.77,0,3.23-1.3,3.48-3h35.24c.25,1.7,1.71,3,3.48,3,1.95,0,3.52-1.58,3.52-3.52s-1.58-3.52-3.52-3.52Z"/>
        <path class="cls-4" d="M421.16,152.16c-1.95,0-3.52,1.58-3.52,3.52,0,.78.26,1.51.69,2.09l-19.95,19.95c-1.37,1.36-3.32,1.75-5.11,1.02-1.78-.74-2.89-2.4-2.89-4.33v-33.65c1.7-.25,3-1.71,3-3.48,0-1.95-1.58-3.52-3.52-3.52-1.77,0-3.23,1.3-3.48,3h-35.24c-.25-1.7-1.71-3-3.48-3-1.95,0-3.52,1.58-3.52,3.52s1.58,3.52,3.52,3.52c1.77,0,3.23-1.3,3.48-3h35.24c.23,1.53,1.43,2.73,2.96,2.96v33.65c0,2.36,1.35,4.39,3.53,5.29.73.3,1.48.45,2.23.45,1.47,0,2.9-.58,4.01-1.69l19.95-19.95c.59.43,1.31.69,2.09.69,1.95,0,3.52-1.58,3.52-3.52s-1.58-3.52-3.52-3.52Z"/>
        <path class="cls-3" d="M438.48,120.47c-1.77,0-3.23,1.3-3.48,3h-27.6c-.25-1.7-1.71-3-3.48-3-1.95,0-3.52,1.58-3.52,3.52s1.58,3.52,3.52,3.52c1.77,0,3.23-1.3,3.48-3h27.6c.25,1.7,1.71,3,3.48,3,1.95,0,3.52-1.58,3.52-3.52s-1.58-3.52-3.52-3.52Z"/>
        <path class="cls-3" d="M292.52,94.39c-1.77,0-3.23,1.3-3.48,3h-31.02c-5.07,0-9.19,4.12-9.19,9.19v22.67c-1.7.25-3,1.71-3,3.48,0,1.95,1.58,3.52,3.52,3.52s3.52-1.58,3.52-3.52c0-1.77-1.3-3.23-3-3.48v-22.67c0-4.5,3.66-8.15,8.15-8.15h31.02c.25,1.7,1.71,3,3.48,3,1.95,0,3.52-1.58,3.52-3.52s-1.58-3.52-3.52-3.52Z"/>
        <g class="cls-8">
          <g>
            <circle class="cls-11" cx="292.52" cy="78.66" r="1.73"/>
            <circle class="cls-11" cx="292.52" cy="70.63" r="1.73"/>
            <circle class="cls-11" cx="292.52" cy="62.6" r="1.73"/>
          </g>
        </g>
        <g class="cls-8">
          <g>
            <path class="cls-10" d="M419.73,84.74c0-1.95-1.58-3.52-3.52-3.52s-3.52,1.58-3.52,3.52c0,1.77,1.3,3.23,3,3.48v48.9c0,4.5-3.66,8.15-8.15,8.15h-27.96c-.22-.7-.88-1.21-1.66-1.21-.96,0-1.73.78-1.73,1.73s.78,1.73,1.73,1.73c.78,0,1.43-.51,1.66-1.21h27.96c5.07,0,9.19-4.12,9.19-9.19v-48.9c1.7-.25,3-1.71,3-3.48Z"/>
            <circle class="cls-10" cx="370.98" cy="145.79" r="1.73"/>
            <circle class="cls-10" cx="364.14" cy="145.79" r="1.73"/>
            <circle class="cls-10" cx="357.3" cy="145.79" r="1.73"/>
            <circle class="cls-10" cx="350.46" cy="145.79" r="1.73"/>
            <circle class="cls-10" cx="343.63" cy="145.79" r="1.73"/>
            <circle class="cls-10" cx="336.79" cy="145.79" r="1.73"/>
            <circle class="cls-10" cx="181.51" cy="76.93" r="1.73"/>
            <circle class="cls-10" cx="174.67" cy="76.93" r="1.73"/>
            <circle class="cls-10" cx="167.83" cy="76.93" r="1.73"/>
            <circle class="cls-10" cx="160.99" cy="76.93" r="1.73"/>
            <circle class="cls-10" cx="154.15" cy="76.93" r="1.73"/>
            <circle class="cls-10" cx="147.31" cy="76.93" r="1.73"/>
            <circle class="cls-10" cx="221.38" cy="76.93" r="1.73"/>
            <circle class="cls-10" cx="207.7" cy="76.93" r="1.73"/>
            <circle class="cls-10" cx="194.02" cy="76.93" r="1.73"/>
          </g>
        </g>
        <g class="cls-8">
          <path class="cls-12" d="M404.44,71.24v-5.36c1.7-.25,3-1.71,3-3.48,0-1.95-1.58-3.52-3.52-3.52-1.77,0-3.23,1.3-3.48,3h-20.87c-.22-.7-.88-1.21-1.66-1.21-.96,0-1.73.78-1.73,1.73s.78,1.73,1.73,1.73c.78,0,1.43-.51,1.66-1.21h20.87c.23,1.53,1.43,2.73,2.96,2.96v5.3c-1.75.17-3.12,1.61-3.18,3.39h-63.46c-5.07,0-9.19,4.12-9.19,9.19v43.79c-1.7.25-3,1.71-3,3.48,0,1.95,1.58,3.52,3.52,3.52s3.52-1.58,3.52-3.52c0-1.77-1.3-3.23-3-3.48v-43.79c0-4.5,3.66-8.15,8.15-8.15h63.58c.41,1.49,1.77,2.59,3.39,2.59,1.95,0,3.52-1.58,3.52-3.52,0-1.7-1.21-3.13-2.82-3.45Z"/>
          <circle class="cls-12" cx="370.98" cy="62.4" r="1.73"/>
          <circle class="cls-12" cx="363.87" cy="62.4" r="1.73"/>
          <circle class="cls-12" cx="356.76" cy="62.4" r="1.73"/>
          <circle class="cls-12" cx="349.65" cy="62.4" r="1.73"/>
          <circle class="cls-12" cx="342.54" cy="62.4" r="1.73"/>
          <circle class="cls-12" cx="335.43" cy="62.4" r="1.73"/>
          <circle class="cls-12" cx="321.21" cy="62.4" r="1.73"/>
          <circle class="cls-12" cx="306.99" cy="62.4" r="1.73"/>
          <circle class="cls-12" cx="279.23" cy="62.4" r="1.73"/>
        </g>
        <path class="cls-2" d="M178.37,58.88c-1.77,0-3.23,1.3-3.48,3h-27.48c-5.07,0-9.19,4.12-9.19,9.19v1.97c-1.53.23-2.73,1.43-2.96,2.96h-70.22v1.04h70.22c.25,1.7,1.71,3,3.48,3,1.95,0,3.52-1.58,3.52-3.52,0-1.77-1.3-3.23-3-3.48v-1.97c0-4.5,3.66-8.15,8.15-8.15h27.48c.25,1.7,1.71,3,3.48,3,1.95,0,3.52-1.58,3.52-3.52s-1.58-3.52-3.52-3.52Z"/>
        <g>
          <path class="cls-7" d="M64.8,87.39h193.86c4.5,0,8.15,3.66,8.15,8.15v26.59c-1.7.25-3,1.71-3,3.48,0,1.95,1.58,3.52,3.52,3.52,1.77,0,3.23-1.3,3.48-3h29.34c5.04,0,9.16-4.1,9.19-9.13l.19-28.77c1.54-.22,2.75-1.43,2.98-2.96h31.67s0,0,0,0c.23,1.53,1.43,2.73,2.96,2.96v18.7c-1.53.23-2.73,1.43-2.96,2.96h-12.62c-.25-1.7-1.71-3-3.48-3-1.95,0-3.52,1.58-3.52,3.52s1.58,3.52,3.52,3.52c1.77,0,3.23-1.3,3.48-3h12.62c.25,1.7,1.71,3,3.48,3s3.23-1.3,3.48-3h35.24c.25,1.7,1.71,3,3.48,3,1.95,0,3.52-1.58,3.52-3.52,0-1.77-1.3-3.23-3-3.48v-18.7s0,0,0,0c1.53-.23,2.73-1.43,2.96-2.96,0,0,0,0,0,0h1.9c4.5,0,8.15,3.66,8.15,8.15v2.29c-1.7.25-3,1.71-3,3.48s1.3,3.23,3,3.48v51.1c-1.7.25-3,1.71-3,3.48,0,1.95,1.58,3.52,3.52,3.52s3.52-1.58,3.52-3.52c0-1.77-1.3-3.23-3-3.48v-42.84h21.59c.25,1.7,1.71,3,3.48,3,1.95,0,3.52-1.58,3.52-3.52,0-1.77-1.3-3.23-3-3.48v-13.48c1.7-.25,3-1.71,3-3.48,0-1.95-1.58-3.52-3.52-3.52s-3.52,1.58-3.52,3.52c0,1.77,1.3,3.23,3,3.48v13.48c-1.53.23-2.73,1.43-2.96,2.96h-21.59v-7.22c1.7-.25,3-1.71,3-3.48s-1.3-3.23-3-3.48v-2.29c0-5.07-4.12-9.19-9.19-9.19h-1.9c-.11-.75-.46-1.43-.97-1.95,0,0-.02-.02-.02-.02-.05-.05-.1-.09-.15-.14-.02-.02-.05-.04-.07-.06-.05-.04-.09-.07-.14-.11-.03-.02-.06-.05-.1-.07-.04-.03-.09-.06-.13-.09-.04-.03-.08-.05-.12-.07-.04-.02-.09-.05-.13-.07-.05-.02-.09-.05-.14-.07-.04-.02-.08-.04-.12-.06-.05-.02-.11-.04-.16-.06-.04-.01-.08-.03-.12-.04-.06-.02-.13-.04-.19-.06-.03,0-.07-.02-.1-.03-.1-.02-.2-.04-.3-.06v-33.65c0-1.93,1.11-3.59,2.89-4.33,1.78-.74,3.74-.35,5.11,1.02l19.95,19.95c-.43.59-.69,1.31-.69,2.09,0,1.95,1.58,3.52,3.52,3.52s3.52-1.58,3.52-3.52-1.58-3.52-3.52-3.52c-.78,0-1.51.26-2.09.69l-19.95-19.95c-1.11-1.11-2.54-1.69-4.01-1.69-.74,0-1.5.15-2.23.45-2.18.9-3.53,2.93-3.53,5.29v33.65c-.19.03-.38.07-.56.13-.15.05-.3.11-.44.18-.06.03-.11.06-.17.09-.37.2-.7.47-.98.79-.02.02-.04.05-.06.07-.11.13-.21.27-.3.42-.08.13-.15.26-.21.4-.05.11-.09.22-.13.33-.06.18-.1.37-.13.56h-35.24c0-.06-.02-.12-.04-.18-.03-.15-.07-.29-.11-.43-.01-.04-.03-.09-.05-.13-.06-.15-.12-.3-.2-.44-.02-.03-.04-.06-.06-.1-.61-1.03-1.73-1.72-3.02-1.72-.12,0-.23,0-.34.02-.04,0-.08.01-.11.02-.07,0-.15.02-.22.03-.05,0-.09.02-.14.03-.06.01-.12.03-.19.05-.05.01-.1.03-.15.05-.05.02-.11.04-.16.06-.05.02-.1.04-.15.07-.05.02-.09.04-.14.07-.05.03-.1.06-.16.08-.04.02-.08.05-.12.07-.05.03-.11.07-.16.11-.03.02-.06.04-.09.07-.06.04-.11.09-.17.13-.02.02-.04.03-.05.05-.6.53-1.01,1.27-1.13,2.1,0,0,0,0,0,0h-31.67c-.25-1.7-1.71-3-3.48-3-1.95,0-3.52,1.58-3.52,3.52,0,1.76,1.29,3.21,2.98,3.48l-.19,28.77c-.03,4.47-3.69,8.1-8.15,8.1h-7.11v-36.91c.7-.22,1.21-.88,1.21-1.66,0-.96-.78-1.73-1.73-1.73s-1.73.78-1.73,1.73c0,.78.51,1.43,1.21,1.66v36.91h-21.19c-.23-1.53-1.43-2.73-2.96-2.96v-26.59c0-5.07-4.12-9.19-9.19-9.19H64.8M389.35,106.92c-1.53.23-2.73,1.43-2.96,2.96h-35.24c-.23-1.53-1.43-2.73-2.96-2.96v-18.7s0,0,0,0c.09-.01.19-.03.28-.05,0,0,0,0,0,0,.64-.15,1.2-.47,1.66-.91.01-.01.02-.02.03-.03.05-.05.09-.1.14-.15.02-.02.04-.05.06-.07.04-.04.07-.09.11-.14.02-.03.05-.07.07-.1.03-.04.06-.09.09-.13.03-.04.05-.08.07-.12.02-.04.05-.09.07-.13.02-.05.05-.09.07-.14.02-.04.04-.08.06-.12.02-.05.04-.11.06-.16.01-.04.03-.08.04-.12.02-.06.04-.13.06-.19,0-.03.02-.07.03-.1.02-.1.04-.2.06-.3h35.24c.02.1.03.2.06.3,0,.03.02.07.03.1.02.06.03.13.06.19.01.04.03.08.04.12.02.05.04.11.06.16.02.04.04.08.06.12.02.05.04.09.07.14.02.04.05.09.07.13.02.04.05.08.07.12.03.04.06.09.09.13.02.03.05.07.07.1.04.05.07.09.11.14.02.02.04.05.06.07.05.05.09.1.14.15,0,0,.02.02.02.02.52.51,1.19.86,1.95.97v18.7Z"/>
          <path class="cls-1" d="M463.37,111.62c0-2.46-.96-4.77-2.69-6.5l-23.79-23.79c.43-.59.69-1.31.69-2.09,0-1.95-1.58-3.52-3.52-3.52s-3.52,1.58-3.52,3.52,1.58,3.52,3.52,3.52c.78,0,1.51-.26,2.09-.69l23.79,23.79c1.54,1.54,2.39,3.59,2.39,5.77s-.85,4.23-2.39,5.77l-23.79,23.79c-.59-.43-1.31-.69-2.09-.69-1.94,0-3.52,1.58-3.52,3.52s1.58,3.52,3.52,3.52,3.52-1.58,3.52-3.52c0-.78-.26-1.51-.69-2.09l23.79-23.79c1.74-1.74,2.69-4.05,2.69-6.5Z"/>
        </g>
      </g>
      <path class="cls-13" d="M44.99,5.92c-.8,0-1.51.44-2.17,1.32-.17.23-.34.46-.5.75l-15.2,29.55L11.84,7.99c-.14-.25-.29-.45-.43-.65-.68-.94-1.41-1.42-2.24-1.42-.44,0-.81.11-1.13.32-.89.58-1.32,1.99-1.32,4.33v43.09c0,.83.71,1.48,1.54,1.48h2.07c.83,0,1.48-.65,1.48-1.48V18.07s12.45,24.83,12.73,25.22c.91,1.29,1.64,1.78,2.58,1.78.89,0,1.6-.49,2.51-1.78.27-.39,12.73-25.22,12.73-25.22v35.6c0,.83.71,1.48,1.54,1.48h2.07c.83,0,1.48-.65,1.48-1.48V10.57c0-3.17-.79-4.65-2.45-4.65Z"/>
    </g>
  </g>
</svg>