<?xml version="1.0" encoding="utf-8"?>
<svg version="1.1" id="Calque_1" xmlns="http://www.w3.org/2000/svg" xmlns:xlink="http://www.w3.org/1999/xlink" x="0px" y="0px"
	 viewBox="0 0 166.1 32" style="enable-background:new 0 0 166.1 32;" xml:space="preserve">
<g>
	<path style="fill:#FFFFFF" d="M44.9,22.1V8.5h-0.1C44.3,8.9,42.4,9,41.7,9h-1.3v0.1c1.6,0.9,1.3,2.3,1.3,4v5.8c0,2.9-2.9,4.9-5.2,4.9
		c-3.1,0-4.3-2.1-4.3-5.6V8.5H32C31.5,8.9,29.7,9,28.9,9h-1.3v0.1c1.6,0.9,1.3,2.3,1.3,4v5.8c0,5.3,2.3,7.8,6.5,7.8
		c2.5,0,5-0.9,6.3-2.9v2.5h4.5v-0.1C44.7,25.2,44.9,23.8,44.9,22.1"/>
	<path style="fill:#FFFFFF" d="M64.7,17c0.1-4.8-3.1-8.4-7.9-8.4c-5.3,0-8.8,3.7-8.8,8.9s4.1,9.2,10.1,9.2c1.7,0,3.4-0.3,4.9-0.9l1.8-3.5
		h-0.1c-1.6,1.4-3.7,2-5.8,2c-4,0-7-2.7-7.1-7.3H64.7z M51.9,14.8c0.4-2.3,2.2-3.8,4.6-3.8c2.5,0,4.2,1.2,4.5,3.8H51.9z"/>
	<path style="fill:#FFFFFF" d="M67.5,0.6c0.8,0,2.6-0.1,3.1-0.6h0.1v23.6c0.9,0.3,1.9,0.4,2.9,0.4c3.9,0,6.1-2.6,6.1-6.3
		c0-3.6-1.7-6.4-5.3-6.4c-1.1,0-2,0.3-2.9,0.8L73.4,9c0.8-0.3,1.6-0.4,2.5-0.4c4,0,7.4,3.4,7.4,8.5c0,5.9-4,9.6-10.4,9.6
		c-2.4,0-4.7-0.4-6.4-0.7v-0.1c1.2-0.5,1.1-1.8,1.1-3V5.7c0-1.7,0.2-4.1-1.3-5.1v0H67.5z"/>
	<path style="fill:#FFFFFF" d="M102.3,17c0.1-4.8-3.1-8.4-7.9-8.4c-5.3,0-8.8,3.7-8.8,8.9s4.1,9.2,10.1,9.2c1.7,0,3.4-0.3,4.9-0.9l1.8-3.5
		h-0.1c-1.6,1.4-3.7,2-5.8,2c-4,0-7-2.7-7.1-7.3H102.3z M89.5,14.8c0.4-2.3,2.2-3.8,4.6-3.8c2.5,0,4.2,1.2,4.5,3.8H89.5z"/>
	<path style="fill:#FFFFFF" d="M118.1,12.8L118.1,12.8c-1.1-1.2-2.8-1.8-4.4-1.8c-3.4,0-5.9,2.5-5.9,6.1c0,4.3,3.4,7.2,7.3,7.2
		c1.8,0,3.8-0.8,5.1-1.8h0.1l-1.8,3.5c-1.5,0.6-3.1,0.7-4.7,0.7c-5.4,0-9.7-3.8-9.7-8.6c0-6.4,4.7-9.5,10.1-9.5
		c1.3,0,2.6,0.1,3.8,0.4L118.1,12.8L118.1,12.8z"/>
	<path style="fill:#FFFFFF" d="M60.3,5.5V1.7c-2.3,1-4.5,2.9-5.9,4.8V8C57.8,5.7,60.3,5.6,60.3,5.5"/>
	<path style="fill:#FFFFFF" d="M31.3,29.9c-3.9,0.6-7.7-0.6-11.7-5.1c3.9-1.9,6.3-6.7,6.3-11.1v-0.5C25.8,5.5,20,0.5,13.1,0.5S0.1,5.7,0,13.4
		v0.5c0,7.4,5.6,12.9,12.5,12.9c1,0,1.9-0.2,2.9-0.4c4.5,4.1,8.5,5.9,12,5.5c1.6-0.2,3.4-0.8,4.4-2.2L31.3,29.9z M13.1,24.1
		c-5.3,0-9-5.9-9-10.9c0,0,0-0.5,0-0.6C4.2,7.7,7.4,3.2,13,3.2c5.9,0,8.9,5.5,9,10.6v0.5C21.8,19.9,18.3,24.1,13.1,24.1"/>
	<path style="fill:#FFFFFF" d="M139.5,6.5c-0.2,0.6-0.6,0.9-0.7,0.9c0,0,0.2-0.7-0.4-1.1c-0.5-0.3-1.1-0.1-1.4,0.3c-0.3,0.4-0.3,0.9-0.3,0.9
		h0.9v0.7h-1.8c0,0,0,0.9,1,0.8c0,0-0.1,0.7-1,0.3c0,0,0,0.8-0.6,1.1c-0.6-0.4-0.6-1.1-0.6-1.1c-0.9,0.4-1-0.3-1-0.3
		c1,0.1,1-0.8,1-0.8h-1.8V7.5h0.9c0,0,0-0.5-0.3-0.9S132.5,6,132,6.3c-0.5,0.4-0.3,1.1-0.3,1.1c-0.1,0-0.5-0.2-0.7-0.9
		c-0.4-1.2,0.8-2.4,2.1-1.7c0.9,0.5,1.2,1.6,1.2,2.7h0.5c0,0.1,0.1-0.9-0.1-1.6c-0.1-0.5-0.3-1-0.6-1.6c-0.3-0.5-0.4-1.4,0.2-2.1
		c0.5-0.6,0.8-0.9,0.9-1.1c0.1,0.2,0.4,0.6,0.9,1.1c0.6,0.7,0.5,1.6,0.2,2.1c-0.3,0.6-0.5,1.1-0.6,1.6c-0.2,0.7-0.1,1.6-0.1,1.6h0.5
		c0-1.1,0.4-2.2,1.2-2.7C138.6,4.1,139.9,5.3,139.5,6.5 M143.9,0.6h-17.2v10.3h17.2V0.6z"/>
	<path style="fill:#FFFFFF" d="M161.7,6.5c-0.2,0.6-0.6,0.9-0.7,0.9c0,0,0.2-0.7-0.4-1.1c-0.5-0.3-1.1-0.1-1.4,0.3C159,7,159,7.5,159,7.5h0.9
		v0.7h-1.8c0,0,0,0.9,1,0.8c0,0-0.1,0.7-1,0.3c0,0,0,0.8-0.6,1.1c-0.6-0.4-0.6-1.1-0.6-1.1c-0.9,0.4-1-0.3-1-0.3c1,0.1,1-0.8,1-0.8
		h-1.8V7.5h0.9c0,0,0-0.5-0.3-0.9s-0.9-0.6-1.4-0.3c-0.5,0.4-0.4,1.1-0.4,1.1c-0.1,0-0.5-0.2-0.7-0.9c-0.4-1.2,0.8-2.4,2.1-1.7
		c0.9,0.5,1.2,1.6,1.2,2.7h0.5c0,0.1,0.1-0.9-0.1-1.6c-0.1-0.5-0.3-1-0.6-1.6c-0.3-0.5-0.4-1.4,0.2-2.1c0.5-0.6,0.8-0.9,0.9-1.1
		c0.1,0.2,0.4,0.6,0.9,1.1c0.5,0.7,0.5,1.6,0.2,2.1c-0.3,0.6-0.5,1.1-0.6,1.6c-0.2,0.7-0.1,1.6-0.1,1.6h0.5c0-1.1,0.4-2.2,1.2-2.7
		C160.8,4.1,162.1,5.3,161.7,6.5 M166.1,0.6h-17.2v10.3h17.2V0.6z"/>
	<path style="fill:#FFFFFF" d="M139.5,21.8c-0.2,0.6-0.6,0.9-0.7,0.9c0,0,0.2-0.7-0.4-1.1c-0.5-0.3-1.1-0.1-1.4,0.3c-0.3,0.4-0.3,0.9-0.3,0.9
		h0.9v0.6h-1.8c0,0,0,0.9,1,0.8c0,0-0.1,0.7-1,0.3c0,0,0,0.8-0.6,1.1c-0.6-0.4-0.6-1.1-0.6-1.1c-0.9,0.4-1-0.3-1-0.3
		c1,0.1,1-0.8,1-0.8h-1.8v-0.6h0.9c0,0,0-0.5-0.3-0.9s-0.9-0.6-1.4-0.3c-0.5,0.4-0.3,1.1-0.3,1.1c-0.1,0-0.5-0.2-0.7-0.9
		c-0.4-1.2,0.8-2.4,2.1-1.7c0.9,0.5,1.2,1.6,1.2,2.7h0.5c0,0.1,0.1-0.9-0.1-1.5c-0.1-0.5-0.3-1-0.6-1.6c-0.3-0.5-0.4-1.4,0.2-2.1
		c0.5-0.6,0.8-0.9,0.9-1.1c0.1,0.2,0.4,0.6,0.9,1.1c0.6,0.7,0.5,1.6,0.2,2.1c-0.3,0.6-0.5,1.1-0.6,1.6c-0.2,0.7-0.1,1.6-0.1,1.5h0.5
		c0-1.1,0.4-2.2,1.2-2.7C138.6,19.4,139.9,20.6,139.5,21.8 M143.9,15.8h-17.2v10.3h17.2V15.8z"/>
	<path style="fill:#FFFFFF" d="M161.7,21.8c-0.2,0.6-0.6,0.9-0.7,0.9c0,0,0.2-0.7-0.4-1.1c-0.5-0.3-1.1-0.1-1.4,0.3c-0.3,0.4-0.3,0.9-0.3,0.9
		h0.9v0.6H158c0,0,0,0.9,1,0.8c0,0-0.1,0.7-1,0.3c0,0,0,0.8-0.6,1.1c-0.6-0.4-0.6-1.1-0.6-1.1c-0.9,0.4-1-0.3-1-0.3
		c1,0.1,1-0.8,1-0.8H155v-0.6h0.9c0,0,0-0.5-0.3-0.9s-0.9-0.6-1.4-0.3c-0.5,0.4-0.4,1.1-0.4,1.1c-0.1,0-0.5-0.2-0.7-0.9
		c-0.4-1.2,0.8-2.4,2.1-1.7c0.9,0.5,1.2,1.6,1.2,2.7h0.5c0,0.1,0.1-0.9-0.1-1.5c-0.1-0.5-0.3-1-0.6-1.6c-0.3-0.5-0.4-1.4,0.2-2.1
		c0.5-0.6,0.8-0.9,0.9-1.1c0.1,0.2,0.4,0.6,0.9,1.1c0.5,0.7,0.5,1.6,0.2,2.1c-0.3,0.6-0.5,1.1-0.6,1.6c-0.2,0.7-0.1,1.6-0.1,1.5h0.5
		c0-1.1,0.4-2.2,1.2-2.7C160.8,19.4,162.1,20.6,161.7,21.8 M166.1,15.8h-17.2v10.3h17.2V15.8z"/>
</g>
</svg>
