<?xml version="1.0" encoding="UTF-8"?>
<svg xmlns="http://www.w3.org/2000/svg" version="1.1" viewBox="0 0 200 186.3">
  <defs>
    <style>
      .cls-1 {
        fill: #ffffff;
      }
    </style>
  </defs>
  <!-- Generator: Adobe Illustrator 28.7.1, SVG Export Plug-In . SVG Version: 1.2.0 Build 142)  -->
  <g>
    <g id="Calque_2">
      <g>
        <path class="cls-1" d="M78.9,73.4c.8,1.2,1.5,2.3,2.3,3.5.8,1.3,2.9,2,4.4,2.1,3.4.1,6.8.1,10.2,0,1.3,0,2.6,0,3.8,0,1.4,0,2.7,0,4.1,0,3.2,0,6.6,0,9.9,0,0,0,.2,0,.2,0,2.4,0,4-1,5.3-3.2l8.3-13c5.6-7.6,7.9-16,6.9-25.4-1.4-13.5-11.1-25.5-23.7-29.2-14.6-4.3-27.1-.8-37.2,10.4-9,10.1-11.1,25.8-5,37.6,3.1,6,6.9,11.7,10.5,17.2ZM79.7,22.9c5.1-5.6,12.5-8.7,20-8.7s6.2.5,9.2,1.6c10.6,3.8,18,13.9,18.4,25.2.2,5.9-1.4,11.4-4.8,16.2-1.4,2-2.7,4.1-4,6-1.6,2.4-3.3,5-5,7.4-.4.6-1.3,1.1-2,1.1h-22.9s-1.5.2-2.5-1.2l-5.8-8.6c-1.7-2.5-3.5-5.1-5-7.8-5.5-10.4-3.9-22.2,4.3-31.3Z"/>
        <path class="cls-1" d="M116.1,85.6c-.3-1.6-2.8-3.1-4.3-3.2-2.9-.2-5.9-.2-8.7-.1-1.1,0-2.2,0-3.3,0h-3.4c-2.8,0-5.5,0-8.3,0-1.4,0-4.6,0-4.7,3.5,0,1.1.3,2,.9,2.6.9,1,2.4,1.1,3.7,1.1h0c7.9,0,15.8,0,23.7,0h0c1.9,0,3.1-.4,3.9-1.3.6-.7.8-1.5.6-2.6Z"/>
        <path class="cls-1" d="M99.8,102.4h0c4.5,0,8-3.3,8.4-7.9v-1.1c0,0-16.9,0-16.9,0v1.1c.5,4.7,3.9,8,8.5,8Z"/>
        <polygon class="cls-1" points="98.6 61.9 100.8 62.2 115.6 34.9 100.4 37.8 100.4 24.2 98.3 23.7 84 51.7 98.6 48.5 98.6 61.9"/>
        <path class="cls-1" d="M53.5,128.7c8.2,0,14.8-6.6,14.8-14.8s-6.6-14.8-14.8-14.8-14.8,6.6-14.8,14.8,6.6,14.8,14.8,14.8ZM53.5,104.1c5.4,0,9.8,4.4,9.8,9.8s-4.4,9.8-9.8,9.8-9.8-4.4-9.8-9.8,4.4-9.8,9.8-9.8Z"/>
        <path class="cls-1" d="M147.8,128.7c8.2,0,14.8-6.6,14.8-14.8s-6.6-14.8-14.8-14.8-14.8,6.6-14.8,14.8,6.6,14.8,14.8,14.8ZM147.8,104.1c5.4,0,9.8,4.4,9.8,9.8s-4.4,9.8-9.8,9.8-9.8-4.4-9.8-9.8,4.4-9.8,9.8-9.8Z"/>
        <path class="cls-1" d="M164.6,134.5h-33.5c-7.2,0-13.1,5.9-13.1,13.1v2.7c-.2,0-.4,0-.5,0h-33.5c-.2,0-.4,0-.6,0v-2.7c0-7.2-5.9-13.1-13.1-13.1h-33.5c-7.2,0-13.1,5.9-13.1,13.1v17.9c0,1.4,1.1,2.5,2.5,2.5s2.5-1.1,2.5-2.5v-17.9c0-4.4,3.6-8.1,8.1-8.1h33.5c4.4,0,8.1,3.6,8.1,8.1v3.6c0,.1,0,.2,0,.4-4.4,2.1-7.5,6.6-7.5,11.8v12.5c0,1.4,1.1,2.5,2.5,2.5s2.5-1.1,2.5-2.5v-12.5c0-4.4,3.6-8.1,8.1-8.1h33.5c4.4,0,8.1,3.6,8.1,8.1v12.5c0,1.4,1.1,2.5,2.5,2.5s2.5-1.1,2.5-2.5v-12.5c0-5.2-3.1-9.7-7.5-11.8,0-.1,0-.2,0-.4v-3.6c0-4.4,3.6-8.1,8.1-8.1h33.5c4.4,0,8.1,3.6,8.1,8.1v17.9c0,1.4,1.1,2.5,2.5,2.5s2.5-1.1,2.5-2.5v-17.9c0-7.2-5.9-13.1-13.1-13.1Z"/>
        <path class="cls-1" d="M85.9,129.6c0,8.2,6.6,14.8,14.8,14.8s14.8-6.6,14.8-14.8-6.6-14.8-14.8-14.8-14.8,6.6-14.8,14.8ZM100.7,119.8c5.4,0,9.8,4.4,9.8,9.8s-4.4,9.8-9.8,9.8-9.8-4.4-9.8-9.8,4.4-9.8,9.8-9.8Z"/>
      </g>
    </g>
  </g>
</svg>
