<?xml version="1.0" encoding="utf-8"?>
<!-- Generator: Adobe Illustrator 24.0.1, SVG Export Plug-In . SVG Version: 6.00 Build 0)  -->
<svg version="1.1" id="Calque_1" xmlns="http://www.w3.org/2000/svg" xmlns:xlink="http://www.w3.org/1999/xlink" x="0px" y="0px"
	 viewBox="0 0 248 83" style="enable-background:new 0 0 248 83;" xml:space="preserve">
<style type="text/css">
	.st0{fill-rule:evenodd;clip-rule:evenodd;}
	.st1{enable-background:new    ;}
	.st2{fill-rule:evenodd;clip-rule:evenodd;fill:#325EA8;}
	.st3{fill-rule:evenodd;clip-rule:evenodd;fill:#FFFFFF;}
</style>
<g>
	<g>
		<g>
			<path d="M102.8,59.2V46.1h-0.1c-0.5,0.4-2.2,0.5-2.9,0.5h-1.3v0.1c1.5,0.9,1.3,2.2,1.3,3.9l0,5.6c0,2.8-2.7,4.7-4.9,4.7
				c-2.9,0-4.1-2.1-4.1-5.4v-9.3h-0.1c-0.5,0.4-2.2,0.5-2.9,0.5h-1.3v0.1c1.5,0.9,1.3,2.2,1.3,3.9v5.5c0,5.1,2.2,7.5,6.1,7.5
				c2.3,0,4.7-0.8,5.9-2.8v2.4h4.3V63C102.6,62.2,102.8,60.9,102.8,59.2z"/>
			<path d="M109.4,52.2c0.4-2.3,2.1-3.7,4.3-3.7c2.4,0,3.9,1.2,4.3,3.7C118,52.2,109.4,52.2,109.4,52.2z M121.5,54.3
				c0.1-4.6-3-8.1-7.5-8.1c-5,0-8.3,3.6-8.3,8.6c0,5,3.9,8.9,9.5,8.9c1.6,0,3.2-0.2,4.6-0.9l1.7-3.4h-0.1c-1.5,1.3-3.5,1.9-5.5,1.9
				c-3.8,0-6.6-2.6-6.7-7C109.3,54.3,121.5,54.3,121.5,54.3z"/>
			<path d="M124.1,38.5c0.8,0,2.4,0,2.9-0.5h0.1v22.7c0.9,0.2,1.8,0.4,2.7,0.4c3.6,0,5.7-2.5,5.7-6.1c0-3.5-1.6-6.2-5-6.2
				c-1.1,0-1.9,0.3-2.8,0.8l1.8-3.1c0.8-0.3,1.6-0.4,2.3-0.4c3.8,0,7,3.3,7,8.2c0,5.6-3.8,9.3-9.8,9.3c-2.3,0-4.4-0.4-6-0.6v-0.1
				c1.1-0.5,1-1.7,1-2.9V43.5c0-1.7,0.2-4-1.2-4.9v-0.1L124.1,38.5L124.1,38.5z"/>
			<path d="M144.9,52.2c0.4-2.3,2.1-3.7,4.3-3.7c2.4,0,3.9,1.2,4.3,3.7C153.5,52.2,144.9,52.2,144.9,52.2z M157,54.3
				c0.1-4.6-3-8.1-7.5-8.1c-5,0-8.3,3.6-8.3,8.6c0,5,3.9,8.9,9.5,8.9c1.6,0,3.2-0.2,4.6-0.9l1.7-3.4h-0.1c-1.5,1.3-3.5,1.9-5.5,1.9
				c-3.8,0-6.6-2.6-6.7-7C144.8,54.3,157,54.3,157,54.3z"/>
			<path d="M171.8,50.3L171.8,50.3c-1.1-1.2-2.7-1.8-4.2-1.8c-3.2,0-5.6,2.4-5.6,5.9c0,4.1,3.2,6.9,6.9,6.9c1.7,0,3.6-0.7,4.9-1.8
				h0.1l-1.7,3.4c-1.4,0.6-2.9,0.7-4.4,0.7c-5.1,0-9.1-3.6-9.1-8.3c0-6.2,4.5-9.2,9.5-9.2c1.2,0,2.4,0.1,3.6,0.4L171.8,50.3
				L171.8,50.3z"/>
			<path class="st0" d="M117.3,43.2c0-1.7,0-3.6,0-3.6c-2.2,1-4.2,2.8-5.6,4.6v1.4C115,43.4,117.3,43.3,117.3,43.2z"/>
			<path d="M72.7,61.1c-5,0-8.5-5.7-8.5-10.5c0-0.1,0-0.5,0-0.5c0.1-4.7,3.1-9,8.4-9c5.5,0,8.4,5.2,8.4,10.2c0,0,0,0.5,0,0.5
				C81,57.1,77.7,61.1,72.7,61.1z M90,66.6c-3.7,0.6-7.3-0.6-11.1-4.9c3.7-1.8,5.9-6.4,5.9-10.7c0,0,0-0.5,0-0.5
				c-0.1-7.3-5.5-12.1-12-12.1c-6.5,0-12.3,5-12.3,12.3c0,0,0,0.5,0,0.5c0,7.1,5.3,12.4,11.8,12.4c0.9,0,1.8-0.1,2.7-0.4
				c4.3,4,8,5.7,11.3,5.3c1.6-0.2,3.2-0.8,4.2-2.1L90,66.6z"/>
		</g>
	</g>
	<g class="st1">
		<path d="M22.6,20.1h8.7l-0.5,2.3h-5.4l-0.5,2.5H30l-0.5,2.2h-5.1l-0.6,3h5.6l-0.5,2.3h-8.9L22.6,20.1z M24.9,18.6l1.7-2.4h3.3v0.4
			L27,18.8h-2.1V18.6z"/>
		<path d="M40.1,20.1h3.2l-2.6,12.4h-2.9l0.3-1.5c-0.9,1.2-2,1.8-3.4,1.8c-1.2,0-2.1-0.4-2.7-1.2c-0.6-0.7-0.9-1.7-0.9-2.9
			c0-1.6,0.4-2.9,1.2-3.9c0.9-1.1,2.1-1.7,3.6-1.7c1.4,0,2.4,0.6,3,1.8L40.1,20.1z M38.5,27.3c0-0.5-0.2-1-0.5-1.3
			c-0.3-0.4-0.7-0.5-1.2-0.5c-0.7,0-1.3,0.4-1.7,1.1c-0.4,0.6-0.6,1.3-0.6,2.1c0,0.5,0.1,0.9,0.4,1.3c0.3,0.3,0.7,0.5,1.2,0.5
			c0.7,0,1.3-0.3,1.8-1C38.3,28.8,38.5,28.1,38.5,27.3z"/>
		<path d="M44.7,23.3h3.2c-0.2,0.9-0.4,1.8-0.7,2.8c-0.3,1.2-0.4,2.1-0.4,2.7c0,0.9,0.4,1.4,1.2,1.4c1.2,0,2.1-1,2.5-3l0.8-3.9h3.2
			l-2,9.2h-2.9l0.4-1.6c-1,1.2-2.2,1.8-3.5,1.8c-1,0-1.7-0.3-2.2-0.9c-0.5-0.6-0.8-1.3-0.8-2.3c0-0.8,0.1-1.9,0.4-3.1
			C44.2,25.4,44.5,24.4,44.7,23.3z"/>
		<path d="M64.2,23.7l-0.7,2.2c-0.7-0.3-1.3-0.5-2-0.5c-0.8,0-1.5,0.2-2,0.7c-0.5,0.5-0.8,1.1-0.8,1.9c0,0.7,0.2,1.3,0.7,1.7
			c0.4,0.4,1,0.6,1.7,0.6c0.6,0,1.2-0.1,1.8-0.4l-0.4,2.4c-1,0.3-1.8,0.4-2.6,0.4c-1.3,0-2.4-0.4-3.3-1.1s-1.3-1.8-1.3-3.1
			c0-1.7,0.6-3,1.7-3.9c1.1-0.9,2.4-1.4,4.1-1.4C62.1,23.1,63.2,23.3,64.2,23.7z"/>
		<path d="M72.8,32.5h-2.7l0.2-1.4c-0.7,1.1-1.8,1.6-3.2,1.6c-0.9,0-1.6-0.2-2.2-0.7c-0.6-0.5-0.9-1.2-0.9-2c0-1.2,0.6-2.1,1.8-2.7
			c0.9-0.4,2.1-0.6,3.6-0.6c0.5,0,1,0,1.5,0.1v-0.3c0.1-1-0.5-1.4-1.8-1.4c-1.1,0-2.1,0.2-3,0.7l0.4-2.1c1-0.4,2-0.5,3-0.5
			c1.1,0,2.1,0.2,2.8,0.6c1,0.5,1.4,1.3,1.4,2.3c0,0.8-0.2,1.9-0.5,3.3C73,30.8,72.8,31.9,72.8,32.5z M70.5,28.3c-0.2,0-0.5,0-0.9,0
			c-1.7,0-2.6,0.5-2.6,1.4c0,0.3,0.1,0.6,0.3,0.8c0.2,0.2,0.5,0.3,0.8,0.3c0.6,0,1.2-0.3,1.6-0.8C70.2,29.5,70.4,29,70.5,28.3z"/>
		<path d="M81.2,20.3l-0.7,3.1h2.3l-0.5,2.2h-2.3c-0.2,0.7-0.3,1.3-0.5,2c-0.2,0.8-0.3,1.5-0.3,2c0,0.6,0.3,0.9,1,0.9
			c0.3,0,0.6-0.1,1.1-0.2l-0.5,2.2c-0.8,0.1-1.3,0.2-1.8,0.2c-0.9,0-1.6-0.2-2.2-0.7c-0.6-0.5-0.8-1.2-0.8-2.1
			c0-0.6,0.1-1.3,0.3-2.2c0.2-0.7,0.3-1.4,0.5-2.2h-1.9l0.5-2.2h1.9l0.5-2.2L81.2,20.3z"/>
		<path d="M84.9,23.3H88l-2,9.2h-3.1L84.9,23.3z M85.5,20.1h3.1l-0.3,1.6h-3.1L85.5,20.1z"/>
		<path d="M94.9,23.1c1.4,0,2.6,0.4,3.4,1.1c0.9,0.8,1.4,1.9,1.4,3.2c0,1.7-0.6,3-1.7,4c-1.1,0.9-2.5,1.4-4.2,1.4
			c-1.4,0-2.5-0.3-3.4-1C89.4,31,89,29.9,89,28.6c0-1.7,0.6-3.1,1.7-4.1C91.7,23.6,93.1,23.1,94.9,23.1z M96.4,27.3
			c0-0.6-0.1-1.1-0.4-1.4c-0.3-0.4-0.7-0.6-1.3-0.6c-0.8,0-1.4,0.4-1.9,1.1c-0.4,0.7-0.6,1.4-0.6,2.2c0,0.6,0.1,1,0.4,1.4
			c0.3,0.4,0.8,0.6,1.3,0.6c0.8,0,1.4-0.4,1.8-1.2C96.2,28.8,96.4,28.1,96.4,27.3z"/>
		<path d="M110.2,32.5H107c0.2-0.9,0.4-1.8,0.7-2.7c0.3-1.2,0.4-2.1,0.4-2.8c0-0.9-0.4-1.4-1.2-1.4c-1.3,0-2.1,1-2.5,3l-0.8,3.9
			h-3.2l2-9.3h2.9l-0.4,1.6c1-1.2,2.2-1.8,3.5-1.8c1,0,1.7,0.3,2.2,0.9c0.5,0.6,0.8,1.4,0.8,2.3c0,0.8-0.1,1.9-0.4,3.1
			C110.7,30.5,110.5,31.5,110.2,32.5z"/>
	</g>
	<g>
		<g>
			<g>
				<rect x="181.9" y="32.5" class="st2" width="20.2" height="12.4"/>
			</g>
		</g>
		<path class="st3" d="M192,33.2c-0.1,0.3-0.5,0.7-1,1.4c-0.6,0.8-0.5,1.9-0.2,2.5c0.3,0.7,0.6,1.3,0.7,1.9c0.2,0.8,0.1,2,0.1,1.9
			h-0.6c0-1.4-0.4-2.6-1.5-3.2c-1.5-0.8-2.9,0.6-2.4,2.1c0.2,0.8,0.7,1,0.8,1c0,0-0.2-0.8,0.4-1.3c0.6-0.4,1.3-0.2,1.6,0.3
			c0.3,0.5,0.4,1.1,0.4,1.1h-1.1v0.8l2.1,0c0,0-0.1,1.1-1.2,1c0,0,0.1,0.9,1.2,0.4c0,0-0.1,0.9,0.7,1.4l0,0l0,0
			c0.7-0.5,0.7-1.4,0.7-1.4c1.1,0.5,1.2-0.4,1.2-0.4c-1.2,0.1-1.2-1-1.2-1l2.1,0v-0.8h-1.1c0,0,0-0.6,0.4-1.1c0.3-0.5,1-0.7,1.6-0.3
			c0.6,0.4,0.4,1.3,0.4,1.3c0.1,0,0.6-0.3,0.8-1c0.5-1.5-1-2.9-2.4-2.1c-1,0.6-1.5,1.9-1.5,3.2h-0.6c0,0.1-0.1-1,0.1-1.9
			c0.2-0.6,0.4-1.2,0.7-1.9c0.3-0.6,0.4-1.7-0.2-2.5C192.4,33.8,192.1,33.4,192,33.2z"/>
		<g>
			<g>
				<rect x="207.9" y="32.5" class="st2" width="20.2" height="12.4"/>
			</g>
		</g>
		<path class="st3" d="M218,33.2c-0.2,0.3-0.5,0.7-1,1.4c-0.6,0.8-0.5,1.9-0.2,2.5c0.4,0.7,0.6,1.3,0.7,1.9c0.2,0.8,0.1,2,0.1,1.9
			H217c0-1.4-0.4-2.6-1.5-3.2c-1.5-0.8-2.9,0.6-2.4,2.1c0.2,0.8,0.7,1,0.8,1c0,0-0.2-0.8,0.4-1.3c0.6-0.4,1.3-0.2,1.6,0.3
			c0.3,0.5,0.4,1.1,0.4,1.1h-1.1v0.8l2.1,0c0,0-0.1,1.1-1.2,1c0,0,0.1,0.9,1.2,0.4c0,0-0.1,0.9,0.7,1.4l0,0l0,0
			c0.7-0.5,0.7-1.4,0.7-1.4c1.1,0.5,1.2-0.4,1.2-0.4c-1.2,0.1-1.2-1-1.2-1l2.1,0v-0.8h-1.1c0,0,0.1-0.6,0.4-1.1
			c0.3-0.5,1-0.7,1.6-0.3c0.6,0.4,0.4,1.3,0.4,1.3c0.1,0,0.5-0.3,0.8-1c0.5-1.5-1-2.9-2.4-2.1c-1,0.6-1.5,1.9-1.5,3.2h-0.6
			c0,0.1-0.1-1,0.1-1.9c0.2-0.6,0.4-1.2,0.7-1.9c0.3-0.6,0.4-1.7-0.2-2.5C218.5,33.8,218.1,33.4,218,33.2z"/>
	</g>
	<g>
		<g>
			<g>
				<rect x="181.9" y="50.8" class="st2" width="20.2" height="12.4"/>
			</g>
		</g>
		<path class="st3" d="M192,51.4c-0.1,0.3-0.5,0.7-1,1.4c-0.6,0.8-0.5,1.9-0.2,2.5c0.3,0.7,0.6,1.3,0.7,1.9c0.2,0.8,0.1,2,0.1,1.9
			h-0.6c0-1.4-0.4-2.6-1.5-3.2c-1.5-0.8-2.9,0.6-2.4,2.1c0.2,0.8,0.7,1,0.8,1c0,0-0.2-0.8,0.4-1.3c0.6-0.4,1.3-0.2,1.6,0.3
			c0.3,0.5,0.4,1.1,0.4,1.1h-1.1v0.8l2.1,0c0,0-0.1,1.1-1.2,1c0,0,0.1,0.9,1.2,0.4c0,0-0.1,0.9,0.7,1.4l0,0l0,0
			c0.7-0.5,0.7-1.4,0.7-1.4c1.1,0.5,1.2-0.4,1.2-0.4c-1.2,0.1-1.2-1-1.2-1l2.1,0V59h-1.1c0,0,0-0.6,0.4-1.1c0.3-0.5,1-0.7,1.6-0.3
			c0.6,0.4,0.4,1.3,0.4,1.3c0.1,0,0.6-0.3,0.8-1c0.5-1.5-1-2.9-2.4-2.1c-1,0.6-1.5,1.9-1.5,3.2h-0.6c0,0.1-0.1-1,0.1-1.9
			c0.2-0.6,0.4-1.2,0.7-1.9c0.3-0.6,0.4-1.7-0.2-2.5C192.4,52.1,192.1,51.7,192,51.4z"/>
		<g>
			<g>
				<rect x="207.9" y="50.8" class="st2" width="20.2" height="12.4"/>
			</g>
		</g>
		<path class="st3" d="M218,51.4c-0.2,0.3-0.5,0.7-1,1.4c-0.6,0.8-0.5,1.9-0.2,2.5c0.4,0.7,0.6,1.3,0.7,1.9c0.2,0.8,0.1,2,0.1,1.9
			H217c0-1.4-0.4-2.6-1.5-3.2c-1.5-0.8-2.9,0.6-2.4,2.1c0.2,0.8,0.7,1,0.8,1c0,0-0.2-0.8,0.4-1.3c0.6-0.4,1.3-0.2,1.6,0.3
			c0.3,0.5,0.4,1.1,0.4,1.1h-1.1v0.8l2.1,0c0,0-0.1,1.1-1.2,1c0,0,0.1,0.9,1.2,0.4c0,0-0.1,0.9,0.7,1.4l0,0l0,0
			c0.7-0.5,0.7-1.4,0.7-1.4c1.1,0.5,1.2-0.4,1.2-0.4c-1.2,0.1-1.2-1-1.2-1l2.1,0V59h-1.1c0,0,0.1-0.6,0.4-1.1c0.3-0.5,1-0.7,1.6-0.3
			c0.6,0.4,0.4,1.3,0.4,1.3c0.1,0,0.5-0.3,0.8-1c0.5-1.5-1-2.9-2.4-2.1c-1,0.6-1.5,1.9-1.5,3.2h-0.6c0,0.1-0.1-1,0.1-1.9
			c0.2-0.6,0.4-1.2,0.7-1.9c0.3-0.6,0.4-1.7-0.2-2.5C218.5,52.1,218.1,51.7,218,51.4z"/>
	</g>
</g>
</svg>
