<?xml version="1.0" encoding="UTF-8"?>
<svg id="Calque_2" data-name="Calque 2" xmlns="http://www.w3.org/2000/svg" viewBox="0 0 1041.92 62.04">
  <defs>
    <style>
      .cls-1 {
        fill: #ffffff;
      }

      .cls-1, .cls-2 {
        stroke-width: 0px;
      }

      .cls-2 {
        fill: #ffffff;
      }
    </style>
  </defs>
  <g>
    <path class="cls-2" d="M345.27,55.55c-1.25,0-2.6-.56-3.62-1.74-.86-.99-1.35-2.3-1.35-4.37v-9.11c0-2.07.53-3.39,1.38-4.37.95-1.12,2.3-1.74,3.78-1.74.56,0,1.12.1,1.68.26.3.1.49.16.76.16.43,0,.72-.33.72-.76,0-.39-.03-.43-.03-.92v-3.95c0-.46.36-.82.82-.82h1.12c.46,0,.82.36.82.82v25.39c0,.46-.13.69-.33.86s-.43.23-.69.23c-.33,0-.62-.16-.89-.36l-.13-.1c-.26-.2-.43-.26-.72-.26-.26,0-.69.23-1.35.46-.46.13-1.15.33-1.97.33ZM348.59,40.56c0-1.35-.2-2.34-.79-2.96-.53-.56-1.22-.82-1.97-.82s-1.45.26-1.97.82c-.59.62-.79,1.61-.79,2.96v8.65c0,1.35.2,2.34.79,2.96.53.56,1.22.82,1.97.82s1.45-.26,1.97-.82c.59-.62.79-1.61.79-2.96v-8.65Z"/>
    <path class="cls-2" d="M358.84,45.69c-.43,0-.72.3-.72.72v2.8c0,1.35.2,2.34.79,2.96.53.56,1.22.82,1.97.82s1.45-.26,1.97-.82c.59-.62.79-1.61.79-2.96v-.26c0-.46.36-.82.82-.82h1.12c.46,0,.82.36.82.82v.49c0,2.07-.53,3.35-1.38,4.34-.95,1.09-2.37,1.78-4.14,1.78s-3.19-.69-4.14-1.78c-.86-.99-1.38-2.27-1.38-4.34v-9.11c0-2.07.53-3.35,1.38-4.34.95-1.09,2.37-1.78,4.14-1.78s3.19.69,4.14,1.78c.86.99,1.38,2.27,1.38,4.34v4.51c0,.46-.39.86-.86.86h-6.71ZM358.12,42.46c0,.49.23.72.72.72h4.05c.43,0,.76-.33.76-.76v-1.87c0-1.35-.2-2.34-.79-2.96-.53-.56-1.22-.82-1.97-.82s-1.45.26-1.97.82c-.59.62-.79,1.61-.79,2.96v1.91Z"/>
    <path class="cls-2" d="M378.92,54.5c0,.46-.36.82-.82.82h-1.12c-.46,0-.82-.36-.82-.82v-25.49c0-.46.36-.82.82-.82h1.12c.46,0,.82.36.82.82v25.49Z"/>
    <path class="cls-2" d="M394.11,54.34c0,.46-.13.69-.33.86-.2.16-.43.23-.69.23-.33,0-.62-.13-.89-.33l-.13-.1c-.26-.2-.43-.26-.72-.26-.26,0-.69.26-1.28.46-.56.2-1.12.36-1.91.36-3.26,0-5.2-2.8-5.2-6.09v-.53c0-1.91.79-3.72,2.24-4.77.82-.62,2.14-.99,3.55-.99h1.88c.43,0,.72-.33.72-.76v-1.87c0-1.35-.2-2.34-.79-2.96-.53-.56-1.22-.82-1.97-.82s-1.45.26-1.97.82c-.53.56-.79,1.48-.79,2.63v.03c0,.46-.36.82-.82.82h-1.12c-.46,0-.82-.36-.82-.82v-.23c0-1.88.56-3.09,1.38-4.05.95-1.09,2.37-1.78,4.14-1.78s3.19.69,4.14,1.78c.85.99,1.38,2.27,1.38,4.34v14.01ZM385.82,49.76c0,.92.23,1.64.66,2.24s1.09.99,2.11.99c1.32,0,2.76-.82,2.76-2.73v-3.82c0-.43-.3-.76-.72-.76h-2.11c-1.05,0-1.71.43-2.14,1.02-.39.56-.56,1.22-.56,2.14v.92Z"/>
  </g>
  <g>
    <path class="cls-1" d="M407.83,7.82c0-.83.71-1.48,1.54-1.48h12.42c.83,0,1.48.65,1.48,1.48v1.89c0,.83-.65,1.3-1.48,1.48h-7.57c-.77,0-1.3.59-1.3,1.36v15.85c0,.77.53,1.36,1.3,1.36h7.57c.83,0,1.48.65,1.48,1.48v1.89c0,.83-.65,1.48-1.48,1.48h-7.57c-.77,0-1.3.59-1.3,1.36v17.69c0,.83-.65,1.48-1.48,1.48h-2.07c-.83,0-1.54-.65-1.54-1.48V7.82Z"/>
    <path class="cls-1" d="M431.5,52.36c-1.54-1.77-2.54-4.08-2.54-7.81v-27.63c0-3.73,1.01-6.03,2.54-7.81,1.77-1.95,4.38-3.19,7.63-3.19s5.86,1.24,7.63,3.19c1.54,1.77,2.54,4.08,2.54,7.81v27.63c0,3.73-1.01,6.03-2.54,7.81-1.77,1.95-4.38,3.19-7.63,3.19s-5.86-1.24-7.63-3.19ZM442.74,49.46c1.12-1.12,1.48-2.9,1.48-5.32v-26.8c0-2.43-.36-4.2-1.48-5.32-.95-1.01-2.19-1.48-3.61-1.48s-2.66.47-3.61,1.48c-1.12,1.12-1.48,2.9-1.48,5.32v26.8c0,2.43.35,4.2,1.48,5.32.95,1.01,2.19,1.48,3.61,1.48s2.66-.47,3.61-1.48Z"/>
    <path class="cls-1" d="M476.87,53.66c0,.83-.65,1.48-1.48,1.48h-2.07c-.83,0-1.54-.65-1.54-1.48v-12.78c0-2.43-.36-4.2-1.42-5.32-.95-1.01-2.25-1.54-3.67-1.54h-3.55c-.77,0-1.3.59-1.3,1.36v18.28c0,.83-.65,1.48-1.48,1.48h-2.07c-.83,0-1.54-.65-1.54-1.48V7.82c0-.83.71-1.48,1.54-1.48h8.52c3.25,0,5.8,1.24,7.51,3.19,1.6,1.77,2.54,4.08,2.54,7.81v5.21c0,2.72-.3,5.68-2.42,7.75l-.47.47c-.36.35-.47.65-.47.95s.12.59.47.95l.47.47c2.13,2.07,2.42,5.03,2.42,7.75v12.78ZM466.7,29.29c1.36,0,2.72-.47,3.67-1.48,1.06-1.12,1.42-2.9,1.42-5.32v-4.55c0-2.43-.3-4.2-1.36-5.32-.95-1.01-2.25-1.48-3.61-1.48h-3.43c-1.01,0-1.54.41-1.54,1.3v15.56c0,.89.47,1.3,1.36,1.3h3.49Z"/>
    <path class="cls-1" d="M504.15,53.66c0,.83-.65,1.48-1.48,1.48h-2.07c-.83,0-1.54-.65-1.54-1.48V16.98c0-2.31-.42-3.96-1.42-5.03-.89-1.01-2.13-1.42-3.43-1.42s-2.48.41-3.43,1.42c-1.07,1.06-1.36,2.72-1.36,5.03v36.68c0,.83-.65,1.48-1.48,1.48h-2.07c-.83,0-1.54-.65-1.54-1.48V8.11c0-.83.24-1.24.65-1.54.36-.3.77-.41,1.24-.41.59,0,1.12.24,1.66.59l.24.18c.47.35.77.47,1.3.47.47,0,1.18-.47,2.42-.89.95-.3,2.13-.59,3.31-.59,1.77,0,3.73.53,5.8,2.37.18.24.47.35.83.35.3,0,.59-.12.95-.35,2.07-1.83,4.32-2.37,6.86-2.37,2.13,0,4.85.95,6.51,2.78,1.54,1.66,2.78,4.02,2.78,8.1v36.85c0,.83-.65,1.48-1.48,1.48h-2.07c-.83,0-1.54-.65-1.54-1.48V16.98c0-2.31-.41-3.96-1.42-5.03-.89-1.01-2.13-1.42-3.43-1.42s-2.48.41-3.43,1.42c-1.06,1.06-1.36,2.72-1.36,5.03v36.68Z"/>
    <path class="cls-1" d="M532.61,34.61c-.71,0-1.3.59-1.3,1.3v17.75c0,.83-.65,1.48-1.48,1.48h-2.07c-.83,0-1.54-.65-1.54-1.48V16.93c0-3.73,1.01-6.03,2.54-7.81,1.77-1.95,4.38-3.19,7.63-3.19s5.86,1.24,7.63,3.19c1.54,1.77,2.54,4.08,2.54,7.81v36.74c0,.83-.71,1.48-1.54,1.48h-2.07c-.83,0-1.48-.65-1.48-1.48v-17.75c0-.71-.59-1.3-1.3-1.3h-7.57ZM540.18,29.88c.71,0,1.3-.59,1.3-1.3v-11.24c0-2.43-.36-4.2-1.48-5.32-.95-1.01-2.19-1.48-3.61-1.48s-2.66.47-3.61,1.48c-1.12,1.12-1.48,2.9-1.48,5.32v11.24c0,.71.59,1.3,1.3,1.3h7.57Z"/>
    <path class="cls-1" d="M570.88,6.34c.83,0,1.48.65,1.48,1.48v1.89c0,.83-.65,1.48-1.48,1.48h-5.21c-.77,0-1.3.65-1.3,1.42v41.05c0,.83-.65,1.48-1.54,1.48h-2.01c-.89,0-1.54-.65-1.54-1.48V12.61c0-.77-.53-1.42-1.3-1.42h-5.15c-.83,0-1.54-.65-1.54-1.48v-1.89c0-.83.71-1.48,1.54-1.48h18.04Z"/>
    <path class="cls-1" d="M583.31,53.66c0,.83-.65,1.48-1.48,1.48h-2.07c-.83,0-1.54-.65-1.54-1.48V7.82c0-.83.71-1.48,1.54-1.48h2.07c.83,0,1.48.65,1.48,1.48v45.85Z"/>
    <path class="cls-1" d="M593.72,52.36c-1.54-1.77-2.54-4.08-2.54-7.81v-27.63c0-3.73,1.01-6.03,2.54-7.81,1.77-1.95,4.38-3.19,7.63-3.19s5.86,1.24,7.63,3.19c1.54,1.77,2.54,4.08,2.54,7.81v27.63c0,3.73-1.01,6.03-2.54,7.81-1.77,1.95-4.38,3.19-7.63,3.19s-5.86-1.24-7.63-3.19ZM604.96,49.46c1.12-1.12,1.48-2.9,1.48-5.32v-26.8c0-2.43-.36-4.2-1.48-5.32-.95-1.01-2.19-1.48-3.61-1.48s-2.66.47-3.61,1.48c-1.12,1.12-1.48,2.9-1.48,5.32v26.8c0,2.43.35,4.2,1.48,5.32.95,1.01,2.19,1.48,3.61,1.48s2.66-.47,3.61-1.48Z"/>
    <path class="cls-1" d="M634.13,17.34c0-2.43-.41-4.2-1.48-5.32-.95-1.01-2.25-1.48-3.61-1.48s-2.66.47-3.61,1.48c-1.12,1.12-1.48,2.9-1.48,5.32v36.32c0,.83-.65,1.48-1.48,1.48h-2.07c-.83,0-1.54-.65-1.54-1.48V8.11c0-.83.24-1.24.65-1.54.36-.3.77-.41,1.24-.41.59,0,1.12.24,1.66.59l.24.18c.47.35.77.47,1.3.47.47,0,1.24-.41,2.48-.83.95-.3,2.31-.65,3.73-.65,2.19,0,4.67.89,6.39,2.72,1.6,1.66,2.66,4.14,2.66,8.22v36.79c0,.83-.65,1.48-1.48,1.48h-2.07c-.83,0-1.54-.65-1.54-1.48V17.34Z"/>
  </g>
  <g>
    <path class="cls-1" d="M660.88,55.14c-.83,0-1.54-.65-1.54-1.48V7.82c0-.83.71-1.48,1.54-1.48h8.64c3.25,0,5.92,1.24,7.63,3.19,1.6,1.77,2.54,4.08,2.54,7.81v6.92c0,3.73-1.01,6.03-2.6,7.81-1.72,1.95-4.32,3.19-7.57,3.19h-3.79c-.77,0-1.3.59-1.3,1.36v17.04c0,.83-.65,1.48-1.48,1.48h-2.07ZM674.6,17.93c0-2.43-.3-4.2-1.36-5.32-.95-1.01-2.37-1.48-3.73-1.48h-3.61c-1.01,0-1.48.41-1.48,1.3v16.74c0,.89.41,1.3,1.3,1.3h3.85c1.36,0,2.66-.65,3.61-1.66,1.06-1.12,1.42-2.9,1.42-5.32v-5.56Z"/>
    <path class="cls-1" d="M707.08,53.66c0,.83-.65,1.48-1.48,1.48h-2.07c-.83,0-1.54-.65-1.54-1.48v-12.78c0-2.43-.36-4.2-1.42-5.32-.95-1.01-2.25-1.54-3.67-1.54h-3.55c-.77,0-1.3.59-1.3,1.36v18.28c0,.83-.65,1.48-1.48,1.48h-2.07c-.83,0-1.54-.65-1.54-1.48V7.82c0-.83.71-1.48,1.54-1.48h8.52c3.25,0,5.8,1.24,7.51,3.19,1.6,1.77,2.54,4.08,2.54,7.81v5.21c0,2.72-.3,5.68-2.42,7.75l-.47.47c-.36.35-.47.65-.47.95s.12.59.47.95l.47.47c2.13,2.07,2.42,5.03,2.42,7.75v12.78ZM696.9,29.29c1.36,0,2.72-.47,3.67-1.48,1.06-1.12,1.42-2.9,1.42-5.32v-4.56c0-2.43-.3-4.2-1.36-5.32-.95-1.01-2.25-1.48-3.61-1.48h-3.43c-1.01,0-1.54.41-1.54,1.3v15.56c0,.89.47,1.3,1.36,1.3h3.49Z"/>
    <path class="cls-1" d="M718.79,52.36c-1.54-1.77-2.54-4.08-2.54-7.81v-27.63c0-3.73,1.01-6.03,2.54-7.81,1.77-1.95,4.38-3.19,7.63-3.19s5.86,1.24,7.63,3.19c1.54,1.77,2.54,4.08,2.54,7.81v27.63c0,3.73-1.01,6.03-2.54,7.81-1.77,1.95-4.38,3.19-7.63,3.19s-5.86-1.24-7.63-3.19ZM730.03,49.46c1.12-1.12,1.48-2.9,1.48-5.32v-26.8c0-2.42-.36-4.2-1.48-5.32-.95-1.01-2.19-1.48-3.61-1.48s-2.66.47-3.61,1.48c-1.12,1.12-1.48,2.9-1.48,5.32v26.8c0,2.43.35,4.2,1.48,5.32.95,1.01,2.19,1.48,3.61,1.48s2.66-.47,3.61-1.48Z"/>
    <path class="cls-1" d="M745.65,7.82c0-.83.71-1.48,1.54-1.48h12.42c.83,0,1.48.65,1.48,1.48v1.89c0,.83-.65,1.3-1.48,1.48h-7.57c-.77,0-1.3.59-1.3,1.36v15.85c0,.77.53,1.36,1.3,1.36h7.57c.83,0,1.48.65,1.48,1.48v1.89c0,.83-.65,1.48-1.48,1.48h-7.57c-.77,0-1.3.59-1.3,1.36v17.69c0,.83-.65,1.48-1.48,1.48h-2.07c-.83,0-1.54-.65-1.54-1.48V7.82Z"/>
    <path class="cls-1" d="M770.03,55.14c-.83,0-1.54-.65-1.54-1.48V7.82c0-.83.71-1.48,1.54-1.48h12.42c.83,0,1.48.65,1.48,1.48v1.89c0,.83-.65,1.3-1.48,1.48h-7.57c-.77,0-1.3.59-1.3,1.36v14.14c0,.77.53,1.36,1.3,1.36h7.57c.83,0,1.48.65,1.48,1.48v1.89c0,.83-.65,1.48-1.48,1.48h-7.57c-.77,0-1.3.59-1.3,1.36v14.67c0,.77.53,1.36,1.3,1.36h7.57c.83,0,1.48.65,1.48,1.48v1.89c0,.83-.65,1.48-1.48,1.48h-12.42Z"/>
    <path class="cls-1" d="M806.29,17.16c0-2.37-.41-4.08-1.42-5.21-1.01-.95-2.25-1.42-3.55-1.42s-2.6.47-3.61,1.42c-1.01,1.12-1.36,2.84-1.36,5.21v4.38c0,2.07.24,3.25.89,4.14.53.83,1.36,1.48,3.19,2.37l4.67,2.13c2.01.89,3.55,1.95,4.67,3.55,1.18,1.66,1.72,3.55,1.72,6.86v4.14c0,4.02-1.3,6.8-3.49,8.58-1.77,1.42-4.02,2.25-6.62,2.25-3.25,0-5.86-1.24-7.63-3.19-1.54-1.77-2.54-4.08-2.54-7.81v-3.61c0-.83.71-1.48,1.54-1.48h2.07c.83,0,1.48.65,1.48,1.48v3.19c0,2.43.35,4.2,1.36,5.32,1.01,1.01,2.19,1.48,3.85,1.48,1.3,0,2.6-.47,3.55-1.42,1.01-1.12,1.36-2.84,1.36-5.21v-3.37c0-2.07-.24-3.25-.89-4.2-.53-.77-1.36-1.48-3.25-2.37l-4.67-2.07c-1.95-.89-3.49-2.13-4.61-3.73-1.12-1.66-1.72-3.49-1.72-6.8v-5.03c0-4.02,1.36-6.8,3.49-8.58,1.77-1.42,4.08-2.25,6.68-2.25,3.19,0,5.8,1.24,7.45,3.14,1.6,1.77,2.48,4.08,2.48,7.75v3.25c0,.83-.65,1.48-1.54,1.48h-2.01c-.89,0-1.54-.65-1.54-1.48v-2.9Z"/>
    <path class="cls-1" d="M833.69,17.16c0-2.37-.41-4.08-1.42-5.21-1.01-.95-2.25-1.42-3.55-1.42s-2.6.47-3.61,1.42c-1.01,1.12-1.36,2.84-1.36,5.21v4.38c0,2.07.24,3.25.89,4.14.53.83,1.36,1.48,3.19,2.37l4.67,2.13c2.01.89,3.55,1.95,4.67,3.55,1.18,1.66,1.72,3.55,1.72,6.86v4.14c0,4.02-1.3,6.8-3.49,8.58-1.77,1.42-4.02,2.25-6.62,2.25-3.25,0-5.86-1.24-7.63-3.19-1.54-1.77-2.54-4.08-2.54-7.81v-3.61c0-.83.71-1.48,1.54-1.48h2.07c.83,0,1.48.65,1.48,1.48v3.19c0,2.43.35,4.2,1.36,5.32,1.01,1.01,2.19,1.48,3.85,1.48,1.3,0,2.6-.47,3.55-1.42,1.01-1.12,1.36-2.84,1.36-5.21v-3.37c0-2.07-.24-3.25-.89-4.2-.53-.77-1.36-1.48-3.25-2.37l-4.67-2.07c-1.95-.89-3.49-2.13-4.61-3.73-1.12-1.66-1.72-3.49-1.72-6.8v-5.03c0-4.02,1.36-6.8,3.49-8.58,1.77-1.42,4.08-2.25,6.68-2.25,3.19,0,5.8,1.24,7.45,3.14,1.6,1.77,2.48,4.08,2.48,7.75v3.25c0,.83-.65,1.48-1.54,1.48h-2.01c-.89,0-1.54-.65-1.54-1.48v-2.9Z"/>
    <path class="cls-1" d="M853.45,53.66c0,.83-.65,1.48-1.48,1.48h-2.07c-.83,0-1.54-.65-1.54-1.48V7.82c0-.83.71-1.48,1.54-1.48h2.07c.83,0,1.48.65,1.48,1.48v45.85Z"/>
    <path class="cls-1" d="M865.57,52.36c-1.54-1.77-2.54-4.08-2.54-7.81v-27.63c0-3.73,1.01-6.03,2.54-7.81,1.77-1.95,4.38-3.19,7.63-3.19s5.86,1.24,7.63,3.19c1.54,1.77,2.54,4.08,2.54,7.81v27.63c0,3.73-1.01,6.03-2.54,7.81-1.77,1.95-4.38,3.19-7.63,3.19s-5.86-1.24-7.63-3.19ZM876.81,49.46c1.12-1.12,1.48-2.9,1.48-5.32v-26.8c0-2.42-.36-4.2-1.48-5.32-.95-1.01-2.19-1.48-3.61-1.48s-2.66.47-3.61,1.48c-1.12,1.12-1.48,2.9-1.48,5.32v26.8c0,2.43.35,4.2,1.48,5.32.95,1.01,2.19,1.48,3.61,1.48s2.66-.47,3.61-1.48Z"/>
    <path class="cls-1" d="M907.69,17.34c0-2.42-.41-4.2-1.48-5.32-.95-1.01-2.25-1.48-3.61-1.48s-2.66.47-3.61,1.48c-1.12,1.12-1.48,2.9-1.48,5.32v36.32c0,.83-.65,1.48-1.48,1.48h-2.07c-.83,0-1.54-.65-1.54-1.48V8.11c0-.83.24-1.24.65-1.54.36-.3.77-.41,1.24-.41.59,0,1.12.24,1.66.59l.24.18c.47.35.77.47,1.3.47.47,0,1.24-.41,2.48-.83.95-.3,2.31-.65,3.73-.65,2.19,0,4.67.89,6.39,2.72,1.6,1.66,2.66,4.14,2.66,8.22v36.79c0,.83-.65,1.48-1.48,1.48h-2.07c-.83,0-1.54-.65-1.54-1.48V17.34Z"/>
    <path class="cls-1" d="M937.1,17.34c0-2.42-.41-4.2-1.48-5.32-.95-1.01-2.25-1.48-3.61-1.48s-2.66.47-3.61,1.48c-1.12,1.12-1.48,2.9-1.48,5.32v36.32c0,.83-.65,1.48-1.48,1.48h-2.07c-.83,0-1.54-.65-1.54-1.48V8.11c0-.83.24-1.24.65-1.54.36-.3.77-.41,1.24-.41.59,0,1.12.24,1.66.59l.24.18c.47.35.77.47,1.3.47.47,0,1.24-.41,2.48-.83.95-.3,2.31-.65,3.73-.65,2.19,0,4.67.89,6.39,2.72,1.6,1.66,2.66,4.14,2.66,8.22v36.79c0,.83-.65,1.48-1.48,1.48h-2.07c-.83,0-1.54-.65-1.54-1.48V17.34Z"/>
    <path class="cls-1" d="M952.78,55.14c-.83,0-1.54-.65-1.54-1.48V7.82c0-.83.71-1.48,1.54-1.48h12.42c.83,0,1.48.65,1.48,1.48v1.89c0,.83-.65,1.3-1.48,1.48h-7.57c-.77,0-1.3.59-1.3,1.36v14.14c0,.77.53,1.36,1.3,1.36h7.57c.83,0,1.48.65,1.48,1.48v1.89c0,.83-.65,1.48-1.48,1.48h-7.57c-.77,0-1.3.59-1.3,1.36v14.67c0,.77.53,1.36,1.3,1.36h7.57c.83,0,1.48.65,1.48,1.48v1.89c0,.83-.65,1.48-1.48,1.48h-12.42Z"/>
    <path class="cls-1" d="M979.75,48.93c0,.77.53,1.36,1.3,1.36h7.1c.83,0,1.48.65,1.48,1.48v1.89c0,.83-.65,1.48-1.48,1.48h-11.95c-.83,0-1.54-.65-1.54-1.48V7.82c0-.83.71-1.48,1.54-1.48h2.07c.83,0,1.48.65,1.48,1.48v41.11Z"/>
    <path class="cls-1" d="M1000.64,48.93c0,.77.53,1.36,1.3,1.36h7.1c.83,0,1.48.65,1.48,1.48v1.89c0,.83-.65,1.48-1.48,1.48h-11.95c-.83,0-1.54-.65-1.54-1.48V7.82c0-.83.71-1.48,1.54-1.48h2.07c.83,0,1.48.65,1.48,1.48v41.11Z"/>
    <path class="cls-1" d="M1017.97,55.14c-.83,0-1.54-.65-1.54-1.48V7.82c0-.83.71-1.48,1.54-1.48h12.42c.83,0,1.48.65,1.48,1.48v1.89c0,.83-.65,1.3-1.48,1.48h-7.57c-.77,0-1.3.59-1.3,1.36v14.14c0,.77.53,1.36,1.3,1.36h7.57c.83,0,1.48.65,1.48,1.48v1.89c0,.83-.65,1.48-1.48,1.48h-7.57c-.77,0-1.3.59-1.3,1.36v14.67c0,.77.53,1.36,1.3,1.36h7.57c.83,0,1.48.65,1.48,1.48v1.89c0,.83-.65,1.48-1.48,1.48h-12.42Z"/>
  </g>
  <g>
    <g>
      <path class="cls-2" d="M73.69,44.55c0,3.73-.95,6.03-2.48,7.81-1.72,1.95-4.26,3.19-7.45,3.19s-5.74-1.24-7.45-3.19c-1.54-1.77-2.48-4.08-2.48-7.81v-16.39c0-3.73.95-6.03,2.48-7.81,1.72-1.95,4.26-3.19,7.45-3.19s5.74,1.24,7.45,3.19c1.54,1.77,2.48,4.08,2.48,7.81v16.39ZM58.78,44.14c0,2.43.36,4.2,1.42,5.32.95,1.01,2.19,1.48,3.55,1.48s2.6-.47,3.55-1.48c1.06-1.12,1.42-2.9,1.42-5.32v-15.56c0-2.43-.36-4.2-1.42-5.32-.95-1.01-2.19-1.48-3.55-1.48s-2.6.47-3.55,1.48c-1.06,1.12-1.42,2.9-1.42,5.32v15.56Z"/>
      <path class="cls-2" d="M89.67,55.55c-2.25,0-4.67-1.01-6.51-3.14-1.54-1.77-2.43-4.14-2.43-7.87v-16.39c0-3.73.95-6.09,2.48-7.87,1.72-2.01,4.14-3.14,6.8-3.14,1.01,0,2.01.18,3.02.47.53.18.89.3,1.36.3.77,0,1.3-.59,1.3-1.36,0-.71-.06-.77-.06-1.66v-7.1c0-.83.65-1.48,1.48-1.48h2.01c.83,0,1.48.65,1.48,1.48v45.67c0,.83-.24,1.24-.59,1.54s-.77.41-1.24.41c-.59,0-1.12-.3-1.6-.65l-.24-.18c-.47-.35-.77-.47-1.3-.47-.47,0-1.24.41-2.42.83-.83.24-2.07.59-3.55.59ZM95.64,28.58c0-2.43-.35-4.2-1.42-5.32-.95-1.01-2.19-1.48-3.55-1.48s-2.6.47-3.55,1.48c-1.07,1.12-1.42,2.9-1.42,5.32v15.56c0,2.43.36,4.2,1.42,5.32.95,1.01,2.19,1.48,3.55,1.48s2.6-.47,3.55-1.48c1.07-1.12,1.42-2.9,1.42-5.32v-15.56Z"/>
      <path class="cls-2" d="M114.1,37.81c-.77,0-1.3.53-1.3,1.3v5.03c0,2.43.36,4.2,1.42,5.32.95,1.01,2.19,1.48,3.55,1.48s2.6-.47,3.55-1.48c1.06-1.12,1.42-2.9,1.42-5.32v-.47c0-.83.65-1.48,1.48-1.48h2.01c.83,0,1.48.65,1.48,1.48v.89c0,3.73-.95,6.03-2.48,7.81-1.72,1.95-4.26,3.19-7.45,3.19s-5.74-1.24-7.45-3.19c-1.54-1.77-2.48-4.08-2.48-7.81v-16.39c0-3.73.95-6.03,2.48-7.81,1.72-1.95,4.26-3.19,7.45-3.19s5.74,1.24,7.45,3.19c1.54,1.77,2.48,4.08,2.48,7.81v8.1c0,.83-.71,1.54-1.54,1.54h-12.07ZM112.8,32.01c0,.89.41,1.3,1.3,1.3h7.28c.77,0,1.36-.59,1.36-1.36v-3.37c0-2.43-.36-4.2-1.42-5.32-.95-1.01-2.19-1.48-3.55-1.48s-2.6.47-3.55,1.48c-1.06,1.12-1.42,2.9-1.42,5.32v3.43Z"/>
      <path class="cls-2" d="M139.84,53.66c0,.83-.65,1.48-1.48,1.48h-2.01c-.83,0-1.48-.65-1.48-1.48V19.35c0-.83.24-1.24.59-1.54.36-.3.77-.41,1.24-.41.59,0,1.12.3,1.6.65l.24.18c.47.35.77.47,1.3.47.47,0,1.24-.35,2.42-.77,1.07-.35,2.31-.59,3.55-.59h1.07c.89,0,1.54.53,1.54,1.48v1.95c0,.83-.65,1.48-1.48,1.48h-1.72c-2.01,0-3.25.41-4.14,1.36-.95,1.06-1.24,2.78-1.24,5.09v24.96Z"/>
      <path class="cls-2" d="M168.41,28.58c0-2.43-.36-4.2-1.42-5.32-.95-1.01-2.19-1.48-3.55-1.48s-2.6.47-3.55,1.48c-1.06,1.12-1.42,2.9-1.42,5.32v25.08c0,.83-.65,1.48-1.48,1.48h-2.01c-.83,0-1.48-.65-1.48-1.48V19.35c0-.83.24-1.24.59-1.54.36-.3.77-.41,1.24-.41.59,0,1.12.3,1.6.65l.24.18c.47.35.77.47,1.3.47.47,0,1.24-.47,2.42-.89.95-.3,2.25-.65,3.67-.65,2.13,0,4.5.89,6.21,2.72,1.54,1.66,2.6,4.14,2.6,8.22v25.56c0,.83-.65,1.48-1.48,1.48h-2.01c-.83,0-1.48-.65-1.48-1.48v-25.08Z"/>
      <path class="cls-2" d="M180.9,7.82c0-.83.65-1.48,1.48-1.48h2.37c.83,0,1.48.65,1.48,1.48v2.37c0,.83-.65,1.48-1.48,1.48h-2.37c-.83,0-1.48-.65-1.48-1.48v-2.37ZM181.07,19.06c0-.83.65-1.48,1.48-1.48h2.01c.83,0,1.48.65,1.48,1.48v34.61c0,.83-.65,1.48-1.48,1.48h-2.01c-.83,0-1.48-.65-1.48-1.48V19.06Z"/>
      <path class="cls-2" d="M199.94,23.14c-.89.89-1.24,2.25-1.24,4.26v.12c0,1.07.3,2.43.77,3.19.47.77,1.12,1.3,2.72,2.01l4.14,1.83c3.31,1.48,4.5,2.54,5.5,3.9,1.01,1.42,1.54,3.08,1.54,5.5v1.54c0,6.33-4.32,10.06-9.88,10.06-3.19,0-5.62-1.24-7.34-3.19-1.54-1.77-2.48-4.08-2.48-7.81v-.89c0-.83.65-1.48,1.48-1.48h2.01c.83,0,1.48.65,1.48,1.48v.06c0,2.43.35,4.61,1.36,5.74.95,1.01,2.13,1.48,3.49,1.48s2.66-.41,3.61-1.36c.89-.89,1.36-2.25,1.36-4.26v-.24c0-1.48-.29-2.9-.83-3.67-.47-.71-1.3-1.54-2.9-2.25l-4.14-1.83c-3.31-1.48-4.32-2.48-5.32-3.85-1.01-1.42-1.48-3.31-1.48-5.74v-.53c0-6.33,4.08-10.06,9.64-10.06,3.19,0,5.74,1.24,7.45,3.19,1.48,1.72,2.48,3.9,2.48,7.28v.41c0,.83-.65,1.48-1.48,1.48h-2.01c-.83,0-1.48-.65-1.48-1.48,0-2.07-.47-3.79-1.42-4.79-.95-1.01-2.19-1.48-3.55-1.48s-2.54.41-3.49,1.36Z"/>
      <path class="cls-2" d="M240.06,53.37c0,.83-.24,1.24-.59,1.54-.36.3-.77.41-1.24.41-.59,0-1.12-.24-1.6-.59l-.24-.18c-.47-.35-.77-.47-1.3-.47-.47,0-1.24.47-2.31.83-1.01.35-2.01.65-3.43.65-5.86,0-9.35-5.03-9.35-10.94v-.95c0-3.43,1.42-6.69,4.02-8.58,1.48-1.12,3.84-1.77,6.39-1.77h3.37c.77,0,1.3-.59,1.3-1.36v-3.37c0-2.43-.36-4.2-1.42-5.32-.95-1.01-2.19-1.48-3.55-1.48s-2.6.47-3.55,1.48c-.95,1.01-1.42,2.66-1.42,4.73v.06c0,.83-.65,1.48-1.48,1.48h-2.01c-.83,0-1.48-.65-1.48-1.48v-.41c0-3.37,1.01-5.56,2.48-7.28,1.72-1.95,4.26-3.19,7.45-3.19s5.74,1.24,7.45,3.19c1.54,1.77,2.48,4.08,2.48,7.81v25.2ZM225.15,45.14c0,1.66.41,2.96,1.18,4.02.77,1.06,1.95,1.77,3.79,1.77,2.37,0,4.97-1.48,4.97-4.91v-6.86c0-.77-.53-1.36-1.3-1.36h-3.79c-1.89,0-3.08.77-3.85,1.83-.71,1.01-1.01,2.19-1.01,3.85v1.66Z"/>
      <path class="cls-2" d="M245.74,22.25c-.83,0-1.48-.65-1.48-1.48v-1.72c0-.83.65-1.48,1.48-1.48h2.19c.77,0,1.3-.65,1.3-1.42v-4.14c0-.83.65-1.48,1.48-1.48h2.01c.83,0,1.48.65,1.48,1.48v4.14c0,.77.53,1.42,1.3,1.42h4.08c.83,0,1.48.65,1.48,1.48v1.72c0,.83-.65,1.48-1.48,1.48h-4.08c-.77,0-1.3.59-1.3,1.36v23.84c0,1.12.3,1.89.77,2.31.35.35,1.07.71,1.89.71h2.72c.83,0,1.48.65,1.48,1.48v1.72c0,.83-.65,1.48-1.48,1.48h-2.01c-3.19,0-5.27-.65-6.62-2.13-1.12-1.24-1.72-2.96-1.72-5.8v-23.6c0-.77-.53-1.36-1.3-1.36h-2.19Z"/>
      <path class="cls-2" d="M266.5,7.82c0-.83.65-1.48,1.48-1.48h2.37c.83,0,1.48.65,1.48,1.48v2.37c0,.83-.65,1.48-1.48,1.48h-2.37c-.83,0-1.48-.65-1.48-1.48v-2.37ZM266.68,19.06c0-.83.65-1.48,1.48-1.48h2.01c.83,0,1.48.65,1.48,1.48v34.61c0,.83-.65,1.48-1.48,1.48h-2.01c-.83,0-1.48-.65-1.48-1.48V19.06Z"/>
      <path class="cls-2" d="M299.28,44.55c0,3.73-.95,6.03-2.48,7.81-1.72,1.95-4.26,3.19-7.45,3.19s-5.74-1.24-7.45-3.19c-1.54-1.77-2.48-4.08-2.48-7.81v-16.39c0-3.73.95-6.03,2.48-7.81,1.72-1.95,4.26-3.19,7.45-3.19s5.74,1.24,7.45,3.19c1.54,1.77,2.48,4.08,2.48,7.81v16.39ZM284.37,44.14c0,2.43.36,4.2,1.42,5.32.95,1.01,2.19,1.48,3.55,1.48s2.6-.47,3.55-1.48c1.06-1.12,1.42-2.9,1.42-5.32v-15.56c0-2.43-.36-4.2-1.42-5.32-.95-1.01-2.19-1.48-3.55-1.48s-2.6.47-3.55,1.48c-1.06,1.12-1.42,2.9-1.42,5.32v15.56Z"/>
      <path class="cls-2" d="M321.41,28.58c0-2.43-.36-4.2-1.42-5.32-.95-1.01-2.19-1.48-3.55-1.48s-2.6.47-3.55,1.48c-1.06,1.12-1.42,2.9-1.42,5.32v25.08c0,.83-.65,1.48-1.48,1.48h-2.01c-.83,0-1.48-.65-1.48-1.48V19.35c0-.83.24-1.24.59-1.54.36-.3.77-.41,1.24-.41.59,0,1.12.3,1.6.65l.24.18c.47.35.77.47,1.3.47.47,0,1.24-.47,2.42-.89.95-.3,2.25-.65,3.67-.65,2.13,0,4.5.89,6.21,2.72,1.54,1.66,2.6,4.14,2.6,8.22v25.56c0,.83-.65,1.48-1.48,1.48h-2.01c-.83,0-1.48-.65-1.48-1.48v-25.08Z"/>
    </g>
    <path class="cls-2" d="M44.99,5.92c-.8,0-1.51.44-2.17,1.32-.17.23-.34.46-.5.75l-15.2,29.55L11.84,7.99c-.14-.25-.29-.45-.43-.65-.68-.94-1.41-1.42-2.24-1.42-.44,0-.81.11-1.13.32-.89.58-1.32,1.99-1.32,4.33v43.09c0,.83.71,1.48,1.54,1.48h2.07c.83,0,1.48-.65,1.48-1.48V18.07s12.45,24.83,12.73,25.22c.91,1.29,1.64,1.78,2.58,1.78.89,0,1.6-.49,2.51-1.78.27-.39,12.73-25.22,12.73-25.22v35.6c0,.83.71,1.48,1.54,1.48h2.07c.83,0,1.48-.65,1.48-1.48V10.57c0-3.17-.79-4.65-2.45-4.65Z"/>
  </g>
</svg>