<?xml version="1.0" encoding="UTF-8"?>
<svg id="Calque_2" data-name="Calque 2" xmlns="http://www.w3.org/2000/svg" viewBox="0 0 200 186.32">
  <defs>
    <style>
      .cls-1, .cls-2 {
        stroke-width: 5px;
      }

      .cls-1, .cls-2, .cls-3, .cls-4 {
        fill: none;
        stroke: #ffffff;
        stroke-linejoin: round;
      }

      .cls-1, .cls-4 {
        stroke-linecap: round;
      }

      .cls-3 {
        stroke-linecap: square;
      }

      .cls-3, .cls-4 {
        stroke-width: 8px;
      }
    </style>
  </defs>
  <path class="cls-1" d="M99.98,36.16c7.61,0,13.8-6.19,13.8-13.8s-6.19-13.81-13.8-13.81-13.8,6.19-13.8,13.81,6.19,13.8,13.8,13.8Z"/>
  <path class="cls-2" d="M131.28,88.52v-28.78c0-6.16-4.99-11.15-11.15-11.15h-40.3c-6.16,0-11.15,4.99-11.15,11.15v28.78"/>
  <polyline class="cls-1" points="19.28 174.83 86.2 174.83 85.63 167.35"/>
  <line class="cls-1" x1="85.63" y1="167.35" x2="81.43" y2="110.64"/>
  <polyline class="cls-1" points="180.68 174.83 113.76 174.83 114.34 167.35"/>
  <line class="cls-1" x1="114.34" y1="167.35" x2="118.53" y2="110.64"/>
  <g>
    <line class="cls-4" x1="167.81" y1="121.33" x2="167.81" y2="109.6"/>
    <g>
      <line class="cls-4" x1="148.31" y1="109.51" x2="148.31" y2="121.33"/>
      <line class="cls-3" x1="148.31" y1="100.54" x2="148.31" y2="114.37"/>
      <line class="cls-3" x1="167.81" y1="114.37" x2="167.81" y2="100.64"/>
    </g>
  </g>
  <path class="cls-4" d="M46.74,83.68c0-7.58-6.15-13.73-13.73-13.73s-13.73,6.15-13.73,13.73v29.67c0,7.58,6.15,13.73,13.73,13.73s13.73-6.15,13.73-13.73v-29.67Z"/>
  <line class="cls-4" x1="46.74" y1="98.52" x2="180.72" y2="98.52"/>
</svg>