<?xml version="1.0" encoding="UTF-8"?>
<svg id="Calque_2" data-name="Calque 2" xmlns="http://www.w3.org/2000/svg" viewBox="0 0 200 186.32">
  <defs>
    <style>
      .cls-1, .cls-2 {
        stroke-width: 5px;
      }

      .cls-1, .cls-2, .cls-3 {
        stroke: #000000;
        stroke-linecap: round;
        stroke-linejoin: round;
      }

      .cls-1, .cls-3 {
        fill: #fff;
      }

      .cls-2 {
        fill: none;
      }

      .cls-3 {
        stroke-width: 9px;
      }
    </style>
  </defs>
  <path class="cls-2" d="M176.05,31.04v70.39c0,18.23-9.1,35.09-24.34,45.09l-46.91,30.81"/>
  <path class="cls-1" d="M161.22,101.43V31.04c-27.84,0-52.07-6.94-64.57-23.37-12.5,16.43-36.73,23.37-64.57,23.37v70.39c0,13.18,6.63,25.46,17.65,32.69l46.92,30.82,46.92-30.82c11.02-7.23,17.65-19.52,17.65-32.69Z"/>
  <line class="cls-3" x1="78" y1="75.96" x2="96.65" y2="100.97"/>
  <line class="cls-3" x1="131.17" y1="56.36" x2="96.65" y2="100.97"/>
  <path class="cls-2" d="M132.93,72.68c1.15,3.62,1.76,7.48,1.76,11.48,0,21.01-17.03,38.04-38.04,38.04s-38.04-17.03-38.04-38.04,17.03-38.04,38.04-38.04c8.36,0,16.09,2.7,22.37,7.27"/>
</svg>